<?xml version="1.0" encoding="utf-8"?>
<!-- Generator: Adobe Illustrator 22.1.0, SVG Export Plug-In . SVG Version: 6.00 Build 0)  -->
<svg version="1.1" id="Layer_1" xmlns="http://www.w3.org/2000/svg" xmlns:xlink="http://www.w3.org/1999/xlink" x="0px" y="0px"
	 viewBox="0 0 48.7 48.4" style="enable-background:new 0 0 48.7 48.4;" xml:space="preserve">
<style type="text/css">
	.st0{fill:#ED1E79;}
</style>
<g>
	<path class="st0" d="M0-0.3C0,15.9,0,32,0,48.2c0.1,0,0.2,0.1,0.3,0.1h0.1c15.9,0,31.9,0,47.8,0c0.1,0,0.3,0,0.4-0.1
		c0-16.2,0-32.3,0-48.5C32.4-0.3,16.2-0.3,0-0.3z M11.9,14.3c3.1,0,19.7,0,24.8,0c0.5,0,0.9,0,1.3,0.4c-4.6,3.8-9.1,7.6-13.7,11.4
		c-4.6-3.8-9.1-7.6-13.7-11.4C11,14.4,11.4,14.3,11.9,14.3z M38.6,17.3c0,4.8,0,9.6,0,14.4c0,1.4-0.6,2-2,2c-8.2,0-16.4,0-24.6,0
		c-1.4,0-2-0.6-2-2c0-4.8,0-9.6,0-14.4c0-0.2,0-0.3,0-0.6c4.8,4,9.6,8,14.3,11.9c4.8-4,9.5-7.9,14.3-11.9
		C38.6,17,38.6,17.1,38.6,17.3z"/>
</g>
</svg>
