<?xml version="1.0" encoding="utf-8"?>
<!-- Generator: Adobe Illustrator 22.1.0, SVG Export Plug-In . SVG Version: 6.00 Build 0)  -->
<svg version="1.1" id="Layer_1" xmlns="http://www.w3.org/2000/svg" xmlns:xlink="http://www.w3.org/1999/xlink" x="0px" y="0px"
	 viewBox="0 0 48.7 48.4" style="enable-background:new 0 0 48.7 48.4;" xml:space="preserve">
<style type="text/css">
	.st0{fill:#F37B20;}
</style>
<g>
	<path class="st0" d="M16.3,37.2c5.4,0,10.7,0,16.1,0c0-3.7,0-7.3,0-11c-5.4,0-10.7,0-16.1,0C16.3,29.9,16.3,33.5,16.3,37.2z
		 M29.6,33.6c-0.9,0-1.7,0-2.6,0s-1.7,0-2.6,0c-1.7,0-3.4,0-5.2,0c-0.6,0-1-0.3-1-0.9c0-0.6,0.4-0.9,1-0.9c3.4,0,6.8,0,10.3,0
		c0.7,0,1.1,0.4,1.1,1C30.5,33.2,30.2,33.6,29.6,33.6z M19.2,28c3.4,0,6.8,0,10.2,0c0.8,0,1.2,0.5,1.1,1.1c-0.1,0.4-0.4,0.7-0.9,0.7
		c-1.7,0-3.5,0-5.2,0s-3.4,0-5.1,0c-0.7,0-1-0.3-1-0.9C18.2,28.4,18.6,28,19.2,28z"/>
	<path class="st0" d="M32.4,11.5c-5.4,0-10.7,0-16.1,0c0,1.8,0,3.6,0,5.5c5.4,0,10.7,0,16.1,0C32.4,15.1,32.4,13.3,32.4,11.5z"/>
	<path class="st0" d="M0.1,0.1c0,16.2,0,32.3,0,48.5c0.1,0,0.2,0.1,0.3,0.1h0.1c15.9,0,31.9,0,47.8,0c0.1,0,0.3,0,0.4-0.1
		c0-16.2,0-32.3,0-48.5C32.5,0.1,16.3,0.1,0.1,0.1z M36.3,32.6c-0.7,0-1.4,0-2.1,0c0,1,0,2,0,3c0,0.8,0,1.6,0,2.4c0,0.7-0.3,1-1,1
		c-5.9,0-11.8,0-17.7,0c-0.7,0-1-0.3-1-1c0-1.6,0-3.1,0-4.7c0-0.2,0-0.5,0-0.7c-0.7,0-1.3,0-1.9,0c-1.7,0-2.9-1.2-2.9-2.9
		c0-3.2,0-6.4,0-9.7c0-1.9,1.1-3.1,3.1-3.1c0.6,0,1.1,0,1.8,0c0-0.8,0-1.6,0-2.4c0-1.3,0-2.6,0-4c0-0.7,0.3-1,1-1
		c5.9,0,11.8,0,17.7,0c0.7,0,1,0.3,1,1.1c0,1.9,0,3.9,0,5.8c0,0.2,0,0.3,0,0.5c0.7,0,1.4,0,2,0c1.6,0,2.8,1.2,2.8,2.7
		c0,3.4,0,6.8,0,10.2C39.1,31.4,37.8,32.6,36.3,32.6z"/>
	<path class="st0" d="M35.2,19.7c-0.5,0-1,0.5-1,1s0.5,1,1,1c0.6,0,1.1-0.5,1.1-1.1C36.3,20.2,35.8,19.7,35.2,19.7z"/>
</g>
</svg>
