<?xml version="1.0" encoding="utf-8"?>
<!-- Generator: Adobe Illustrator 22.1.0, SVG Export Plug-In . SVG Version: 6.00 Build 0)  -->
<svg version="1.1" id="Layer_1" xmlns="http://www.w3.org/2000/svg" xmlns:xlink="http://www.w3.org/1999/xlink" x="0px" y="0px"
	 viewBox="0 0 48.7 48.4" style="enable-background:new 0 0 48.7 48.4;" xml:space="preserve">
<style type="text/css">
	.st0{fill:#738488;}
</style>
<g>
	<path class="st0" d="M0.5,48.5c15.9,0,31.9,0,47.8,0c0.1,0,0.3,0,0.4-0.1c0-16.2,0-32.3,0-48.5c-16.2,0-32.4,0-48.6,0
		c0,16.2,0,32.3,0,48.5c0.1,0,0.2,0.1,0.3,0.1C0.4,48.5,0.5,48.5,0.5,48.5z M17.6,20.2c1,0,2,0,3,0c0.2,0,0.2-0.1,0.2-0.2
		c0-1.3,0-2.6,0-3.9c0-0.8,0.1-1.6,0.4-2.3c0.6-1.7,1.8-2.9,3.5-3.5c0.9-0.3,1.8-0.5,2.7-0.5c0.9,0,1.7,0,2.6,0
		c0.4,0,0.7,0.1,1.1,0.1c0.2,0,0.2,0.1,0.2,0.2c0,0.7,0,1.4,0,2.1c0,0.5,0,1,0,1.4c0,0.2,0,0.4,0,0.6c0,0.2-0.1,0.3-0.2,0.3
		c-0.7,0-1.3,0-2,0c-0.6,0-1.1,0-1.7,0.1c-0.8,0.1-1.3,0.6-1.3,1.4c0,0.7,0,1.4-0.1,2c0,0.7,0,1.3,0,2c0,0.3,0,0.3,0.2,0.3
		c1.6,0,3.2,0,4.7,0c0.3,0,0.3,0,0.3,0.3c0,1-0.1,2.1-0.1,3.1c0,0.4,0,0.8,0,1.2c0,0.3-0.3,0.3-0.3,0.3l-4.4,0c0,0-0.4,0-0.4,0.3
		c0,4.3,0,8.6,0,12.9c0,0.4,0,0.5-0.5,0.5c-1.5,0-2.9,0-4.4,0c-0.3,0-0.4,0-0.4-0.4c0-2.2,0-4.3,0-6.5c0,0,0,0,0,0
		c0-2.1,0-4.3,0-6.4c0-0.4-0.4-0.4-0.4-0.4s-1.9,0-2.9,0c-0.3,0-0.3,0-0.3-0.3c0-1.4,0-2.8,0-4.3C17.3,20.2,17.3,20.2,17.6,20.2z"/>
</g>
</svg>
