<?xml version="1.0" encoding="utf-8"?>
<!-- Generator: Adobe Illustrator 22.1.0, SVG Export Plug-In . SVG Version: 6.00 Build 0)  -->
<svg version="1.1" id="Layer_1" xmlns="http://www.w3.org/2000/svg" xmlns:xlink="http://www.w3.org/1999/xlink" x="0px" y="0px"
	 viewBox="0 0 48.7 48.4" style="enable-background:new 0 0 48.7 48.4;" xml:space="preserve">
<style type="text/css">
	.st0{fill:#738488;}
</style>
<g>
	<path class="st0" d="M-0.1,0.1c0,16.2,0,32.3,0,48.5c0.1,0,0.2,0.1,0.3,0.1c0,0,0.1,0,0.1,0c15.9,0,31.9,0,47.8,0
		c0.1,0,0.3,0,0.4-0.1c0-16.2,0-32.3,0-48.5C32.4,0.1,16.2,0.1-0.1,0.1z M39.5,15c-0.8,1.1-1.7,2.1-2.8,2.9
		c-0.2,0.1-0.2,0.3-0.2,0.5c0,0.7,0,1.3-0.1,2c-0.3,3.3-1.4,6.2-3.2,8.9c-2.9,4.2-7,6.7-12.1,7.5c-0.5,0.1-1,0.1-1.5,0.2
		c-0.8,0-1.6,0-2.4,0c-0.1,0-0.2-0.1-0.3-0.1c-2.8-0.2-5.5-1.1-7.9-2.6c-0.1-0.1-0.2-0.1-0.2-0.2c1.7,0.1,3.3,0,4.9-0.5
		c1.6-0.4,3-1.2,4.4-2.2c-3-0.4-5.5-2.3-5.8-4.3c0.4,0,0.9,0,1.3,0c0.4,0,0.9-0.1,1.3-0.1c0,0,0-0.1,0-0.1c-1.4-0.4-2.6-1.1-3.5-2.3
		c-0.9-1.2-1.4-2.5-1.4-4c0.9,0.4,1.8,0.7,2.8,0.8c-3.4-2.5-3.2-6.5-1.9-8.4c1.6,2,3.6,3.5,5.8,4.7c2.3,1.1,4.7,1.8,7.2,1.9
		c0-0.1,0-0.1,0-0.2c-0.7-3.4,1.4-6.6,4.8-7.4c2.9-0.7,5,0.7,6,1.7c0.1,0.1,0.2,0.1,0.3,0.1c0.5-0.1,1.1-0.2,1.6-0.4
		c0.8-0.3,1.5-0.6,2.2-1c-0.5,1.4-1.4,2.5-2.6,3.4c1.2-0.1,2.3-0.4,3.4-0.9C39.6,14.9,39.6,15,39.5,15z"/>
</g>
</svg>
