<?xml version="1.0" encoding="utf-8"?>
<!-- Generator: Adobe Illustrator 22.1.0, SVG Export Plug-In . SVG Version: 6.00 Build 0)  -->
<svg version="1.1" id="Layer_1" xmlns="http://www.w3.org/2000/svg" xmlns:xlink="http://www.w3.org/1999/xlink" x="0px" y="0px"
	 viewBox="0 0 48.4 48.3" style="enable-background:new 0 0 48.4 48.3;" xml:space="preserve">
<style type="text/css">
	.st0{fill:#FFFFFF;}
	.st1{fill:#5AA8DF;}
</style>
<g>
	<path class="st0" d="M0.3,48.4c15.9,0,31.9,0,47.8,0c0.1,0,0.3,0,0.4-0.1c0-16.2,0-32.3,0-48.5c-16.2,0-32.4,0-48.6,0
		c0,16.2,0,32.3,0,48.5c0.1,0,0.2,0.1,0.3,0.1C0.2,48.4,0.3,48.4,0.3,48.4z M17.5,20.1c1,0,2,0,3,0c0.2,0,0.2-0.1,0.2-0.2
		c0-1.3,0-2.6,0-3.9c0-0.8,0.1-1.6,0.4-2.3c0.6-1.7,1.8-2.9,3.5-3.5c0.9-0.3,1.8-0.5,2.7-0.5c0.9,0,1.7,0,2.6,0
		c0.4,0,0.7,0.1,1.1,0.1c0.2,0,0.2,0.1,0.2,0.2c0,0.7,0,1.4,0,2.1c0,0.5,0,1,0,1.4c0,0.2,0,0.4,0,0.6c0,0.2-0.1,0.3-0.2,0.3
		c-0.7,0-1.3,0-2,0c-0.6,0-1.1,0-1.7,0.1c-0.8,0.1-1.3,0.6-1.3,1.4c0,0.7,0,1.4-0.1,2c0,0.7,0,1.3,0,2c0,0.3,0,0.3,0.2,0.3
		c1.6,0,3.2,0,4.7,0c0.3,0,0.3,0,0.3,0.3c0,1-0.1,2.1-0.1,3.1c0,0.4,0,0.8,0,1.2c0,0.3-0.3,0.3-0.3,0.3l-4.4,0c0,0-0.4,0-0.4,0.3
		c0,4.3,0,8.6,0,12.9c0,0.4,0,0.5-0.5,0.5c-1.5,0-2.9,0-4.4,0c-0.3,0-0.4,0-0.4-0.4c0-2.2,0-4.3,0-6.5c0,0,0,0,0,0
		c0-2.1,0-4.3,0-6.4c0-0.4-0.4-0.4-0.4-0.4s-1.9,0-2.9,0c-0.3,0-0.3,0-0.3-0.3c0-1.4,0-2.8,0-4.3C17.1,20.2,17.2,20.1,17.5,20.1z"/>
</g>
<g>
	<path class="st1" d="M-0.2-0.2c0,16.3,0,32.5,0,48.8c0.1,0,0.2,0.1,0.3,0.1c0,0,0.1,0,0.1,0c16,0,32,0,47.9,0c0.1,0,0.3,0,0.4-0.1
		c0-16.3,0-32.5,0-48.8C32.3-0.2,16-0.2-0.2-0.2z M39.5,14.8c-0.8,1.1-1.7,2.1-2.8,2.9c-0.2,0.1-0.2,0.3-0.2,0.5c0,0.7,0,1.3-0.1,2
		c-0.3,3.3-1.4,6.3-3.2,9c-2.9,4.3-7,6.8-12.1,7.5c-0.5,0.1-1,0.1-1.5,0.2c-0.8,0-1.6,0-2.4,0c-0.1,0-0.2-0.1-0.3-0.1
		c-2.9-0.2-5.5-1.1-8-2.6c-0.1-0.1-0.2-0.1-0.2-0.2c1.7,0.1,3.3,0,4.9-0.5c1.6-0.4,3-1.2,4.4-2.2c-3-0.4-5.6-2.3-5.8-4.4
		c0.4,0,0.9,0,1.3,0c0.4,0,0.9-0.1,1.3-0.1c0,0,0-0.1,0-0.1c-1.4-0.4-2.6-1.1-3.6-2.3c-0.9-1.2-1.4-2.5-1.4-4
		c0.9,0.4,1.8,0.7,2.8,0.8c-3.4-2.5-3.2-6.5-1.9-8.5c1.6,2,3.6,3.6,5.9,4.7c2.3,1.2,4.7,1.8,7.2,1.9c0-0.1,0-0.1,0-0.2
		c-0.7-3.4,1.4-6.7,4.8-7.5c2.9-0.7,5,0.7,6,1.7c0.1,0.1,0.2,0.1,0.3,0.1c0.5-0.1,1.1-0.2,1.6-0.4c0.8-0.3,1.5-0.6,2.3-1
		c-0.5,1.4-1.4,2.5-2.6,3.4c1.2-0.1,2.4-0.4,3.4-0.9C39.6,14.7,39.5,14.7,39.5,14.8z"/>
</g>
</svg>
