<?xml version="1.0" encoding="utf-8"?>
<!-- Generator: Adobe Illustrator 22.1.0, SVG Export Plug-In . SVG Version: 6.00 Build 0)  -->
<svg version="1.1" id="Layer_1" xmlns="http://www.w3.org/2000/svg" xmlns:xlink="http://www.w3.org/1999/xlink" x="0px" y="0px"
	 viewBox="0 0 258.7 52.2" style="enable-background:new 0 0 258.7 52.2;" xml:space="preserve">
<style type="text/css">
	.st0{fill:#151F21;}
	.st1{fill:#00B1F0;}
</style>
<path class="st0" d="M35.6,41.2h-6.1c-0.3-1.2-0.5-2.5-0.6-3.8c-2.1,2.9-5.9,4.4-11.2,4.4c-11.1,0-17.4-8.4-17.4-19.3
	C0.3,11,7,2.3,19.1,2.3c9.9,0,15.7,5.6,16.6,12.1h-8.3c-0.8-2.6-2.8-5.6-8.4-5.6c-7.9,0-10.1,6.6-10.1,13.4
	c0,6.6,2.6,13.1,10.2,13.1c7.1,0,8.4-4.9,8.4-8.4v-0.3H19v-6.8h16.5V41.2z"/>
<path class="st0" d="M41,20.2c0-2.9,0-5.4-0.1-7.8h7.8c0.1,0.6,0.2,3.5,0.2,5.1c1.3-3.3,6.1-5.7,11-5.7v7.6c-5.8-0.1-11,1.4-11,9.3
	v12.6h-8V20.2z"/>
<path class="st0" d="M122.7,32.9c0,2.8,0,5.8,0.1,8.4h-7.8c-0.1-0.8-0.2-2.3-0.2-3.3c-1.7,2.9-4.8,4-8.5,4c-5.9,0-9.6-3.6-9.6-10.7
	V12.4h8v17.2c0,3.2,1.6,5.8,5,5.8c3.6,0,5.1-1.9,5.1-7.6V12.4h8V32.9z"/>
<path class="st0" d="M128.1,19.7c0-2.4,0-5.1-0.1-7.3h7.7c0.2,0.7,0.3,2.7,0.3,3.7c1-1.8,4.5-4.3,9.5-4.3c5.8,0,9.5,3.9,9.5,11.1
	v18.3h-8V23.8c0-3.2-1.1-5.6-4.6-5.6c-3.4,0-6.5,1.9-6.5,7v16.1h-8V19.7z"/>
<path class="st0" d="M187.5,0.6v32.7c0,2.6,0,5.3,0.1,7.9h-7.7c-0.2-0.9-0.3-2.4-0.4-3c-1.4,2.3-3.9,3.7-8.2,3.7
	c-7.3,0-11.9-5.9-11.9-14.8c0-8.9,4.9-15.3,13.1-15.3c4.1,0,6.4,1.5,7,2.8V0.6H187.5z M167.6,26.9c0,5.6,2.2,8.7,6.1,8.7
	c5.5,0,6.1-4.6,6.1-8.7c0-4.9-0.7-8.7-5.9-8.7C169.7,18.1,167.6,21.4,167.6,26.9z"/>
<path class="st1" d="M202.6,1.1v24.6c0,7.4,3.2,9.5,7.3,9.5c4.7,0,7.1-2.6,7.1-9.5V1.1h8.3v24.2c0,13.1-7.1,16.5-15.6,16.5
	c-8.7,0-15.5-3.5-15.5-16.3V1.1H202.6z"/>
<path class="st1" d="M238.2,38.7v13.6h-7.9V19.4c0-2.3,0-4.6-0.1-6.9h7.7c0.1,0.8,0.3,2.5,0.3,3.6c1.2-2.1,3.8-4.3,8.4-4.3
	c6.5,0,11.5,5.4,11.5,14.3c0,10.2-5.6,15.8-12.6,15.8C241.4,41.9,239.3,40.4,238.2,38.7z M250,26.4c0-5.3-2.1-8.3-5.9-8.3
	c-4.5,0-6.1,2.9-6.1,8.7c0,5.5,1.5,8.7,5.8,8.7C247.9,35.6,250,32.3,250,26.4z"/>
<g>
	<path class="st0" d="M65.1,36.3c-1.7-2-2.8-4.2-3.3-6.7c-0.5-2.2-0.5-4.4,0.1-6.6c0.1-0.3,0.2-0.5,0.5-0.5c3.5,0,7,0,10.5,0
		c0,0,0.1,0,0.2,0.1C70.4,27.2,67.8,31.7,65.1,36.3z"/>
	<path class="st0" d="M80.8,30.3c2.7-4.6,5.3-9,8-13.7c0.5,0.8,1,1.4,1.4,2.1c2,3.5,2.7,7.2,1.8,11.2c-0.1,0.4-0.2,0.5-0.6,0.5
		c-3.4,0-6.8,0-10.2,0C81.1,30.3,81,30.3,80.8,30.3z"/>
	<path class="st0" d="M72,28.4c2.6,4.4,5.2,8.8,7.9,13.3c-0.9,0.1-1.7,0.2-2.4,0.2c-4,0.1-7.5-1.2-10.5-3.7
		c-0.3-0.2-0.5-0.4-0.2-0.8c1.7-2.8,3.4-5.7,5-8.5C71.8,28.7,71.9,28.6,72,28.4z"/>
	<path class="st0" d="M74.1,11.3c1.9-0.4,3.8-0.4,5.6-0.1c2.7,0.5,5.1,1.7,7.2,3.4c0.4,0.3,0.5,0.6,0.2,1.1
		c-1.6,2.7-3.2,5.4-4.8,8.1c-0.1,0.2-0.2,0.3-0.4,0.6C79.3,20.1,76.8,15.7,74.1,11.3z"/>
	<path class="st0" d="M77.4,20.6c-5,0-9.8,0-14.7,0c0-0.2,0-0.3,0.1-0.4c1.8-3.9,4.7-6.6,8.7-8.2c0.5-0.2,0.8-0.2,1.1,0.4
		c1.5,2.6,3,5.1,4.5,7.6C77.1,20.2,77.2,20.4,77.4,20.6z"/>
	<path class="st0" d="M76.7,32.3c4.8,0,9.6,0,14.5,0c0,0.2,0,0.3-0.1,0.4c-1.8,3.9-4.7,6.6-8.8,8.2c-0.3,0.1-0.6,0.2-0.8-0.2
		c-1.6-2.7-3.1-5.3-4.7-8C76.8,32.6,76.8,32.5,76.7,32.3z"/>
</g>
<g>
	<circle class="st1" cx="76.9" cy="26.5" r="3.1"/>
</g>
</svg>
