<?xml version="1.0" encoding="utf-8"?>
<!-- Generator: Adobe Illustrator 22.1.0, SVG Export Plug-In . SVG Version: 6.00 Build 0)  -->
<svg version="1.1" id="Isolation_Mode" xmlns="http://www.w3.org/2000/svg" xmlns:xlink="http://www.w3.org/1999/xlink" x="0px"
	 y="0px" viewBox="0 0 240.2 240.7" style="enable-background:new 0 0 240.2 240.7;" xml:space="preserve">
<style type="text/css">
	.st0{fill:#FFFFFF;}
</style>
<path class="st0" d="M227.1,98.1h-14.7c-2.4-10.7-6.6-20.7-12.3-29.6L210.5,58c2.9-2.9,2.9-7.7,0-10.6l-18-18
	c-2.9-2.9-7.7-2.9-10.6,0l-10.4,10.4c-8.9-5.7-18.9-9.9-29.6-12.3V12.8c0-4.1-3.4-7.5-7.5-7.5h-25.5c-4.1,0-7.5,3.4-7.5,7.5v14.7
	c-10.7,2.4-20.7,6.6-29.6,12.3L61.3,29.4c-2.9-2.9-7.7-2.9-10.6,0l-18,18c-2.9,2.9-2.9,7.7,0,10.6l10.4,10.4
	c-5.7,8.9-9.9,18.9-12.3,29.6H16.1c-4.1,0-7.5,3.4-7.5,7.5v25.5c0,4.1,3.4,7.5,7.5,7.5h14.7c2.4,10.7,6.6,20.7,12.3,29.6l-10.4,10.4
	c-2.9,2.9-2.9,7.7,0,10.6l18,18c2.9,2.9,7.7,2.9,10.6,0l10.4-10.4c8.9,5.7,18.9,9.9,29.6,12.3v14.7c0,4.1,3.4,7.5,7.5,7.5h25.5
	c4.1,0,7.5-3.4,7.5-7.5v-14.7c10.7-2.4,20.7-6.6,29.6-12.3l10.4,10.4c2.9,2.9,7.7,2.9,10.6,0l18-18c2.9-2.9,2.9-7.7,0-10.6
	l-10.4-10.4c5.7-8.9,9.9-18.9,12.3-29.6h14.7c4.1,0,7.5-3.4,7.5-7.5v-25.5C234.6,101.4,231.2,98.1,227.1,98.1z M121.6,178.3
	c-33.1,0-60-26.9-60-60s26.9-60,60-60s60,26.9,60,60S154.7,178.3,121.6,178.3z"/>
</svg>
