<?xml version="1.0" encoding="utf-8"?>
<!-- Generator: Adobe Illustrator 22.1.0, SVG Export Plug-In . SVG Version: 6.00 Build 0)  -->
<svg version="1.1" id="Layer_1" xmlns="http://www.w3.org/2000/svg" xmlns:xlink="http://www.w3.org/1999/xlink" x="0px" y="0px"
	 viewBox="0 0 48.7 48.4" style="enable-background:new 0 0 48.7 48.4;" xml:space="preserve">
<style type="text/css">
	.st0{fill:#738488;}
</style>
<g>
	<path class="st0" d="M0,0c0,16.2,0,32.3,0,48.5c0.1,0,0.2,0.1,0.3,0.1c0,0,0.1,0,0.1,0c15.9,0,31.9,0,47.8,0c0.1,0,0.3,0,0.4-0.1
		c0-16.2,0-32.3,0-48.5C32.4,0,16.2,0,0,0z M17.1,30.5c-1.6,0-3.1,0-4.7,0c-1,0-1.8-1-1.8-2.1c0-0.7,0-1.3,0-2c0-4.7,0-9.3,0-14
		c0-1.6,0.8-2.4,2.4-2.4c4.9,0,9.9,0,14.8,0c1.5,0,2.4,0.8,2.4,2.4c0,1.4,0,2.9,0,4.3c-0.6,0-1.1,0-1.7,0c0-0.1,0-0.3,0-0.4
		c0-1.3,0-2.6,0-3.9c0-0.5-0.1-0.7-0.6-0.7c-5,0-10,0-15,0c-0.5,0-0.6,0.1-0.6,0.7c0,5.3,0,10.6,0,15.8c0,0.6,0.1,0.7,0.7,0.7
		c1.2,0,2.4,0,3.6,0c0.5,0,0.6,0.1,0.6,0.6C17.1,29.8,17.1,30.1,17.1,30.5z M14.7,22.6c-0.2-0.9-0.4-1.8-0.5-2.7
		c-0.1-0.4,0.2-0.7,0.6-0.9c0.4-0.1,0.7,0,1,0.4c0.1,0.1,0.1,0.2,0.2,0.3c0.7,1.3,1.5,2.5,2.6,3.5c1.8,1.8,4,2.7,6.5,2.9
		c0.1,0,0.2,0,0.3,0c0,0,0.1,0,0.2,0c0-0.7,0-1.4,0-2.1c0-0.4,0.1-0.8,0.5-1c0.4-0.2,0.8,0,1.1,0.4c1.5,1.5,2.9,2.9,4.4,4.4
		c0.6,0.6,0.6,1,0,1.5c-1.5,1.5-3,2.9-4.4,4.4c-0.3,0.3-0.6,0.5-1.1,0.3c-0.4-0.2-0.5-0.5-0.5-1c0-0.7,0-1.4,0-2.1
		c-1.2-0.2-2.3-0.3-3.4-0.6C18.1,29.2,15.8,26.5,14.7,22.6z M38,36.3c0,1.4-0.9,2.3-2.3,2.3c-5,0-10,0-15.1,0
		c-1.4,0-2.2-0.9-2.2-2.3c0-1.9,0-3.8,0-5.8c0-0.1,0-0.2,0-0.4c0.5,0.3,1,0.5,1.5,0.8c0.1,0.1,0.2,0.3,0.2,0.4c0,1.6,0,3.2,0,4.8
		c0,0.6,0.1,0.7,0.7,0.7c5,0,9.9,0,14.9,0c0.6,0,0.7-0.1,0.7-0.7c0-5.3,0-10.5,0-15.8c0-0.6-0.1-0.7-0.7-0.7c-5,0-9.9,0-14.9,0
		c-0.6,0-0.7,0.1-0.7,0.7c0,0.8,0,1.6,0,2.6c-0.4-0.4-0.7-0.7-1.1-1c-0.9-0.8-0.7-1.7-0.4-2.6c0.3-0.9,1.1-1.3,2.1-1.3
		c5,0,10,0,15,0c1.4,0,2.3,0.9,2.3,2.3C38,25.7,38,31,38,36.3z"/>
</g>
</svg>
