<?xml version="1.0" encoding="utf-8"?>
<!-- Generator: Adobe Illustrator 22.1.0, SVG Export Plug-In . SVG Version: 6.00 Build 0)  -->
<svg version="1.1" id="Layer_1" xmlns="http://www.w3.org/2000/svg" xmlns:xlink="http://www.w3.org/1999/xlink" x="0px" y="0px"
	 viewBox="0 0 48.4 48.3" style="enable-background:new 0 0 48.4 48.3;" xml:space="preserve">
<style type="text/css">
	.st0{fill:#FFFFFF;}
	.st1{fill:#FF7B00;}
</style>
<g>
	<path class="st0" d="M0.3,48.4c15.9,0,31.9,0,47.8,0c0.1,0,0.3,0,0.4-0.1c0-16.2,0-32.3,0-48.5c-16.2,0-32.4,0-48.6,0
		c0,16.2,0,32.3,0,48.5c0.1,0,0.2,0.1,0.3,0.1C0.2,48.4,0.3,48.4,0.3,48.4z M17.5,20.1c1,0,2,0,3,0c0.2,0,0.2-0.1,0.2-0.2
		c0-1.3,0-2.6,0-3.9c0-0.8,0.1-1.6,0.4-2.3c0.6-1.7,1.8-2.9,3.5-3.5c0.9-0.3,1.8-0.5,2.7-0.5c0.9,0,1.7,0,2.6,0
		c0.4,0,0.7,0.1,1.1,0.1c0.2,0,0.2,0.1,0.2,0.2c0,0.7,0,1.4,0,2.1c0,0.5,0,1,0,1.4c0,0.2,0,0.4,0,0.6c0,0.2-0.1,0.3-0.2,0.3
		c-0.7,0-1.3,0-2,0c-0.6,0-1.1,0-1.7,0.1c-0.8,0.1-1.3,0.6-1.3,1.4c0,0.7,0,1.4-0.1,2c0,0.7,0,1.3,0,2c0,0.3,0,0.3,0.2,0.3
		c1.6,0,3.2,0,4.7,0c0.3,0,0.3,0,0.3,0.3c0,1-0.1,2.1-0.1,3.1c0,0.4,0,0.8,0,1.2c0,0.3-0.3,0.3-0.3,0.3l-4.4,0c0,0-0.4,0-0.4,0.3
		c0,4.3,0,8.6,0,12.9c0,0.4,0,0.5-0.5,0.5c-1.5,0-2.9,0-4.4,0c-0.3,0-0.4,0-0.4-0.4c0-2.2,0-4.3,0-6.5c0,0,0,0,0,0
		c0-2.1,0-4.3,0-6.4c0-0.4-0.4-0.4-0.4-0.4s-1.9,0-2.9,0c-0.3,0-0.3,0-0.3-0.3c0-1.4,0-2.8,0-4.3C17.1,20.2,17.2,20.1,17.5,20.1z"/>
</g>
<path class="st1" d="M0-0.3C0,15.9,0,32,0,48.2c0.1,0,0.2,0.1,0.3,0.1c0,0,0.1,0,0.1,0c15.9,0,31.9,0,47.8,0c0.1,0,0.3,0,0.4-0.1
	c0-16.2,0-32.3,0-48.5C32.4-0.3,16.2-0.3,0-0.3z M15.6,35.8c-1.8,0-3.2-1.5-3.2-3.3c0-1.8,1.5-3.2,3.3-3.1c1.8,0,3.2,1.5,3.2,3.3
	C18.9,34.4,17.4,35.8,15.6,35.8z M23.6,35.8c-0.1-3.1-1.2-5.7-3.4-7.8c-2.1-2.1-4.7-3.2-7.7-3.3c0-1.5,0-3,0-4.6
	c3.8,0.1,7.1,1.3,10,3.7c3.7,3.1,5.5,7.1,5.7,12C26.6,35.8,25.1,35.8,23.6,35.8z M31.4,35.7c-0.1-5.1-1.9-9.6-5.6-13.3
	c-3.7-3.6-8.1-5.4-13.3-5.4c0-1.6,0-3.2,0-4.8c5.7,0,10.8,1.8,15.1,5.4c5.6,4.7,8.3,10.8,8.5,18.1C34.5,35.7,33,35.7,31.4,35.7z"/>
</svg>
