<?xml version="1.0" encoding="utf-8"?>
<!-- Generator: Adobe Illustrator 22.1.0, SVG Export Plug-In . SVG Version: 6.00 Build 0)  -->
<svg version="1.1" id="Layer_1" xmlns="http://www.w3.org/2000/svg" xmlns:xlink="http://www.w3.org/1999/xlink" x="0px" y="0px"
	 viewBox="0 0 48.4 48.3" style="enable-background:new 0 0 48.4 48.3;" xml:space="preserve">
<style type="text/css">
	.st0{fill:#FFFFFF;}
	.st1{fill:#BE1E2D;}
</style>
<g>
	<path class="st0" d="M0.3,48.4c15.9,0,31.9,0,47.8,0c0.1,0,0.3,0,0.4-0.1c0-16.2,0-32.3,0-48.5c-16.2,0-32.4,0-48.6,0
		c0,16.2,0,32.3,0,48.5c0.1,0,0.2,0.1,0.3,0.1C0.2,48.4,0.3,48.4,0.3,48.4z M17.5,20.1c1,0,2,0,3,0c0.2,0,0.2-0.1,0.2-0.2
		c0-1.3,0-2.6,0-3.9c0-0.8,0.1-1.6,0.4-2.3c0.6-1.7,1.8-2.9,3.5-3.5c0.9-0.3,1.8-0.5,2.7-0.5c0.9,0,1.7,0,2.6,0
		c0.4,0,0.7,0.1,1.1,0.1c0.2,0,0.2,0.1,0.2,0.2c0,0.7,0,1.4,0,2.1c0,0.5,0,1,0,1.4c0,0.2,0,0.4,0,0.6c0,0.2-0.1,0.3-0.2,0.3
		c-0.7,0-1.3,0-2,0c-0.6,0-1.1,0-1.7,0.1c-0.8,0.1-1.3,0.6-1.3,1.4c0,0.7,0,1.4-0.1,2c0,0.7,0,1.3,0,2c0,0.3,0,0.3,0.2,0.3
		c1.6,0,3.2,0,4.7,0c0.3,0,0.3,0,0.3,0.3c0,1-0.1,2.1-0.1,3.1c0,0.4,0,0.8,0,1.2c0,0.3-0.3,0.3-0.3,0.3l-4.4,0c0,0-0.4,0-0.4,0.3
		c0,4.3,0,8.6,0,12.9c0,0.4,0,0.5-0.5,0.5c-1.5,0-2.9,0-4.4,0c-0.3,0-0.4,0-0.4-0.4c0-2.2,0-4.3,0-6.5c0,0,0,0,0,0
		c0-2.1,0-4.3,0-6.4c0-0.4-0.4-0.4-0.4-0.4s-1.9,0-2.9,0c-0.3,0-0.3,0-0.3-0.3c0-1.4,0-2.8,0-4.3C17.1,20.2,17.2,20.1,17.5,20.1z"/>
</g>
<g>
	<path class="st1" d="M-0.4,48.6c0-16.4,0-32.8,0-49.1c16.4,0,32.8,0,49.1,0c0,16.4,0,32.8,0,49.1C32.3,48.6,15.9,48.6-0.4,48.6z
		 M24.1,42.5c3.2,0,6.4,0,9.6,0c3.1,0,5.3-2.1,5.3-5.2c0-3.1,0-6.1,0-9.2c0-3-2.1-5.2-5.1-5.2c-6.5,0-13,0-19.5,0
		c-2.9,0-5.1,2.2-5.1,5c0,3.2,0,6.5,0,9.7c0,2.8,2.2,4.9,5,4.9C17.6,42.5,20.8,42.5,24.1,42.5z M22.4,5.7c-0.7,0-1.2,0-1.8,0
		c-0.4,0-0.6,0.1-0.6,0.5c-0.1,0.5-0.3,1.1-0.5,1.6c-0.3,1.1-0.7,2.2-1,3.4c-0.1-0.3-0.2-0.4-0.2-0.6c-0.5-1.5-0.9-3-1.4-4.4
		c-0.1-0.2-0.2-0.5-0.4-0.5c-0.7-0.1-1.4,0-2.1,0c0.1,0.2,0.1,0.3,0.1,0.4c0.6,1.6,1.1,3.2,1.7,4.7c0.7,1.9,1.4,3.9,1.2,6
		c-0.1,1.2,0,2.3,0,3.5c0.7,0,1.4,0,2.1,0c0-0.3,0-0.5,0-0.7c0-1.7,0-3.3,0-5c0-0.3,0.1-0.7,0.2-1c0.6-1.7,1.2-3.4,1.8-5.2
		C21.7,7.7,22,6.7,22.4,5.7z M27.3,15.2c-0.1-1.3-0.1-2.4-0.3-3.5c-0.2-1.6-1.2-2.6-2.6-2.6c-1.5,0-2.5,0.7-2.8,2.4
		c-0.4,2.3-0.4,4.7,0,7c0.3,1.5,1.2,2.3,2.6,2.3c1.4,0,2.4-0.7,2.7-2.2C27.1,17.4,27.2,16.2,27.3,15.2z M28.4,9.5c0,3.2,0,6.3,0,9.4
		c0,0.2,0.1,0.4,0.1,0.6c0.2,0.6,0.6,1.1,1.3,1.2c0.8,0.1,1.4-0.1,1.9-0.7c0.1-0.1,0.2-0.2,0.3-0.4c0,0.3,0,0.6,0.1,0.8
		c0.6,0,1.2,0,1.9,0c0-3.7,0-7.3,0-10.9c-0.6,0-1.2,0-1.9,0c0,0.3,0,0.5,0,0.7c0,2,0,4.1,0,6.1c0,0.6,0,1.1-0.2,1.7
		c-0.1,0.3-0.5,0.6-0.8,0.5c-0.2,0-0.5-0.4-0.7-0.6c-0.1-0.1-0.1-0.3-0.1-0.4c0-2.4,0-4.8-0.1-7.2c0-0.2,0-0.5,0-0.7
		C29.6,9.5,29,9.5,28.4,9.5z"/>
	<path class="st1" d="M26.5,29.8c0.4-0.3,0.6-0.5,0.9-0.7c0.7-0.3,1.6-0.1,1.8,0.7c0.3,0.8,0.5,1.7,0.5,2.5c0.1,1.4,0,2.8-0.1,4.2
		c0,0.5-0.2,1-0.4,1.5c-0.6,1.1-1.8,1.2-2.5,0.2c0-0.1-0.1-0.1-0.2-0.2c0,0.3-0.1,0.4-0.1,0.6c-0.5,0-1,0-1.5,0c0-4.1,0-8.3,0-12.4
		c0.5,0,1,0,1.6,0C26.5,27.4,26.5,28.6,26.5,29.8z M26.4,34c0.1,0.8,0.1,1.6,0.2,2.4c0,0.4,0.3,0.8,0.7,0.7c0.3-0.1,0.6-0.5,0.6-0.7
		c0.1-1.6,0.1-3.1,0-4.7c0-0.4-0.2-0.8-0.7-0.7c-0.3,0.1-0.6,0.4-0.7,0.7C26.5,32.4,26.5,33.2,26.4,34z"/>
	<path class="st1" d="M35.9,34.3c-1,0-1.9,0-2.8,0c-0.4,0-0.6,0.1-0.5,0.5c0.1,0.6,0,1.1,0.1,1.7c0.1,0.3,0.4,0.5,0.7,0.8
		c0.2-0.3,0.6-0.5,0.7-0.8c0.1-0.3,0.1-0.6,0.2-1c0.5,0,1,0,1.5,0c0,0.9,0,1.8-0.5,2.5c-0.8,1.2-3.2,1.2-3.8-0.2
		c-0.4-0.7-0.5-1.6-0.6-2.4c0-1.5,0-3.1,0.2-4.6c0.2-1.3,1.1-1.9,2.4-1.9c1.2,0,2,0.6,2.2,1.9C35.8,32,35.8,33.1,35.9,34.3z
		 M32.5,32.7c1.7,0.2,1.9,0,1.6-1.4c0,0,0,0,0-0.1c-0.2-0.2-0.4-0.5-0.6-0.5c-0.2,0-0.6,0.2-0.7,0.4C32.6,31.7,32.6,32.2,32.5,32.7z
		"/>
	<path class="st1" d="M21.7,29.3c0.5,0,0.9,0,1.3,0c0.1,0,0.3,0.2,0.3,0.3c0,3,0,6,0,8.9c0,0,0,0-0.1,0.1c-0.4,0-0.9,0-1.4,0
		c0-0.2-0.1-0.4-0.2-0.6c-0.2,0.2-0.3,0.3-0.4,0.5c-0.7,0.7-1.9,0.5-2.3-0.5c-0.2-0.5-0.3-1-0.3-1.5c0-2.2,0-4.4,0-6.5
		c0-0.6,0.2-0.8,0.8-0.7c0.1,0,0.2,0,0.3,0c0.5-0.1,0.6,0.1,0.6,0.6c0,2,0,3.9,0,5.9c0,0.3,0,0.6,0.1,0.8c0.1,0.2,0.4,0.5,0.6,0.5
		c0.2,0,0.5-0.2,0.6-0.4c0.1-0.3,0.2-0.6,0.2-0.9C21.7,33.6,21.7,31.5,21.7,29.3z"/>
	<path class="st1" d="M12.8,26.2c2,0,3.9,0,5.8,0c0,0.7,0,1.3,0,2c-0.5,0-0.9,0-1.4,0c-0.5,0-0.6,0.1-0.6,0.6c0,3,0,6,0,9
		c0,0.2,0,0.5,0,0.8c-0.6,0-1.2,0-1.8,0c0-0.2,0-0.5,0-0.7c0-3,0-6,0-9c0-0.6-0.2-0.7-0.7-0.7c-0.4,0-0.8,0-1.3,0
		C12.8,27.6,12.8,26.9,12.8,26.2z"/>
	<path class="st1" d="M25.2,14.9c0,0.7,0,1.5,0,2.2c0,0.3,0,0.7-0.2,1c-0.2,0.3-0.5,0.6-0.8,0.6c-0.3,0-0.6-0.3-0.7-0.6
		c-0.2-0.3-0.2-0.7-0.2-1c0-1.5,0-2.9,0-4.4c0-0.4,0.1-0.8,0.3-1.1c0.3-0.6,1.1-0.7,1.4,0c0.2,0.4,0.3,0.8,0.3,1.2
		C25.2,13.5,25.2,14.2,25.2,14.9z"/>
</g>
</svg>
