<svg xmlns="http://www.w3.org/2000/svg" viewBox="0 0 240.2 240.7"><path d="M227.1 98.1h-14.7c-2.4-10.7-6.6-20.7-12.3-29.6L210.5 58c2.9-2.9 2.9-7.7 0-10.6l-18-18c-2.9-2.9-7.7-2.9-10.6 0l-10.4 10.4c-8.9-5.7-18.9-9.9-29.6-12.3V12.8c0-4.1-3.4-7.5-7.5-7.5h-25.5c-4.1 0-7.5 3.4-7.5 7.5v14.7c-10.7 2.4-20.7 6.6-29.6 12.3L61.3 29.4c-2.9-2.9-7.7-2.9-10.6 0l-18 18c-2.9 2.9-2.9 7.7 0 10.6l10.4 10.4c-5.7 8.9-9.9 18.9-12.3 29.6H16.1c-4.1 0-7.5 3.4-7.5 7.5V131c0 4.1 3.4 7.5 7.5 7.5h14.7c2.4 10.7 6.6 20.7 12.3 29.6l-10.4 10.4c-2.9 2.9-2.9 7.7 0 10.6l18 18c2.9 2.9 7.7 2.9 10.6 0l10.4-10.4c8.9 5.7 18.9 9.9 29.6 12.3v14.7c0 4.1 3.4 7.5 7.5 7.5h25.5c4.1 0 7.5-3.4 7.5-7.5V209c10.7-2.4 20.7-6.6 29.6-12.3l10.4 10.4c2.9 2.9 7.7 2.9 10.6 0l18-18c2.9-2.9 2.9-7.7 0-10.6L200 168.1c5.7-8.9 9.9-18.9 12.3-29.6H227c4.1 0 7.5-3.4 7.5-7.5v-25.5c.1-4.1-3.3-7.4-7.4-7.4zm-105.5 80.2c-33.1 0-60-26.9-60-60s26.9-60 60-60 60 26.9 60 60-26.9 60-60 60z" fill="#fff"/></svg>