<svg xmlns="http://www.w3.org/2000/svg" viewBox="0 0 48.7 48.4"><path d="M.5 48.5h47.8c.1 0 .3 0 .4-.1V-.1H.1v48.5c.1 0 .2.1.3.1h.1zm17.1-28.3h3c.2 0 .2-.1.2-.2v-3.9c0-.8.1-1.6.4-2.3.6-1.7 1.8-2.9 3.5-3.5.9-.3 1.8-.5 2.7-.5H30c.4 0 .7.1 1.1.1.2 0 .2.1.2.2v4.1c0 .2-.1.3-.2.3h-2c-.6 0-1.1 0-1.7.1-.8.1-1.3.6-1.3 1.4 0 .7 0 1.4-.1 2v2c0 .3 0 .3.2.3h4.7c.3 0 .3 0 .3.3 0 1-.1 2.1-.1 3.1v1.2c0 .3-.3.3-.3.3h-4.4s-.4 0-.4.3v12.9c0 .4 0 .5-.5.5h-4.4c-.3 0-.4 0-.4-.4V32v-6.4c0-.4-.4-.4-.4-.4h-2.9c-.3 0-.3 0-.3-.3v-4.3c.2-.4.2-.4.5-.4z" fill="#738488"/></svg>