<svg xmlns="http://www.w3.org/2000/svg" viewBox="0 0 48.7 48.4"><path d="M-.1.1v48.5c.1 0 .2.1.3.1h47.9c.1 0 .3 0 .4-.1V.1H-.1zM39.5 15c-.8 1.1-1.7 2.1-2.8 2.9-.2.1-.2.3-.2.5 0 .7 0 1.3-.1 2-.3 3.3-1.4 6.2-3.2 8.9-2.9 4.2-7 6.7-12.1 7.5-.5.1-1 .1-1.5.2h-2.4c-.1 0-.2-.1-.3-.1-2.8-.2-5.5-1.1-7.9-2.6-.1-.1-.2-.1-.2-.2 1.7.1 3.3 0 4.9-.5 1.6-.4 3-1.2 4.4-2.2-3-.4-5.5-2.3-5.8-4.3h1.3c.4 0 .9-.1 1.3-.1v-.1c-1.4-.4-2.6-1.1-3.5-2.3-.9-1.2-1.4-2.5-1.4-4 .9.4 1.8.7 2.8.8-3.4-2.5-3.2-6.5-1.9-8.4 1.6 2 3.6 3.5 5.8 4.7 2.3 1.1 4.7 1.8 7.2 1.9v-.2c-.7-3.4 1.4-6.6 4.8-7.4 2.9-.7 5 .7 6 1.7.1.1.2.1.3.1.5-.1 1.1-.2 1.6-.4.8-.3 1.5-.6 2.2-1-.5 1.4-1.4 2.5-2.6 3.4 1.2-.1 2.3-.4 3.4-.9 0 0 0 .1-.1.1z" fill="#738488"/></svg>