<svg id="Layer_1" xmlns="http://www.w3.org/2000/svg" viewBox="0 0 48.7 48.4"><style>.st0{fill:#f37b20}</style><path class="st0" d="M16.3 37.2h16.1v-11H16.3v11zm13.3-3.6H19.2c-.6 0-1-.3-1-.9 0-.6.4-.9 1-.9h10.3c.7 0 1.1.4 1.1 1-.1.4-.4.8-1 .8zM19.2 28h10.2c.8 0 1.2.5 1.1 1.1-.1.4-.4.7-.9.7H19.3c-.7 0-1-.3-1-.9-.1-.5.3-.9.9-.9zM32.4 11.5H16.3V17h16.1v-5.5z"/><path class="st0" d="M.1.1v48.5c.1 0 .2.1.3.1h47.9c.1 0 .3 0 .4-.1V.1H.1zm36.2 32.5h-2.1V38c0 .7-.3 1-1 1H15.5c-.7 0-1-.3-1-1v-4.7-.7h-1.9c-1.7 0-2.9-1.2-2.9-2.9V20c0-1.9 1.1-3.1 3.1-3.1h1.8v-2.4-4c0-.7.3-1 1-1h17.7c.7 0 1 .3 1 1.1v6.3h2c1.6 0 2.8 1.2 2.8 2.7v10.2c0 1.6-1.3 2.8-2.8 2.8z"/><path class="st0" d="M35.2 19.7c-.5 0-1 .5-1 1s.5 1 1 1c.6 0 1.1-.5 1.1-1.1 0-.4-.5-.9-1.1-.9z"/></svg>