<svg xmlns="http://www.w3.org/2000/svg" viewBox="0 0 48.7 48.4"><path d="M0 0v48.5c.1 0 .2.1.3.1h47.9c.1 0 .3 0 .4-.1V0H0zm17.1 30.5h-4.7c-1 0-1.8-1-1.8-2.1v-2-14c0-1.6.8-2.4 2.4-2.4h14.8c1.5 0 2.4.8 2.4 2.4v4.3h-1.7v-.4-3.9c0-.5-.1-.7-.6-.7h-15c-.5 0-.6.1-.6.7v15.8c0 .6.1.7.7.7h3.6c.5 0 .6.1.6.6-.1.3-.1.6-.1 1zm-2.4-7.9c-.2-.9-.4-1.8-.5-2.7-.1-.4.2-.7.6-.9.4-.1.7 0 1 .4.1.1.1.2.2.3.7 1.3 1.5 2.5 2.6 3.5 1.8 1.8 4 2.7 6.5 2.9h.5V24c0-.4.1-.8.5-1 .4-.2.8 0 1.1.4l4.4 4.4c.6.6.6 1 0 1.5-1.5 1.5-3 2.9-4.4 4.4-.3.3-.6.5-1.1.3-.4-.2-.5-.5-.5-1v-2.1c-1.2-.2-2.3-.3-3.4-.6-4.1-1.1-6.4-3.8-7.5-7.7zM38 36.3c0 1.4-.9 2.3-2.3 2.3H20.6c-1.4 0-2.2-.9-2.2-2.3v-5.8-.4c.5.3 1 .5 1.5.8.1.1.2.3.2.4v4.8c0 .6.1.7.7.7h14.9c.6 0 .7-.1.7-.7V20.3c0-.6-.1-.7-.7-.7H20.8c-.6 0-.7.1-.7.7v2.6c-.4-.4-.7-.7-1.1-1-.9-.8-.7-1.7-.4-2.6.3-.9 1.1-1.3 2.1-1.3h15c1.4 0 2.3.9 2.3 2.3v16z" fill="#00a651"/></svg>