<svg xmlns="http://www.w3.org/2000/svg" viewBox="0 0 48.4 48.3"><path d="M.3 48.4h47.8c.1 0 .3 0 .4-.1V-.2H-.1v48.5c.1 0 .2.1.3.1h.1zm17.2-28.3h3c.2 0 .2-.1.2-.2V16c0-.8.1-1.6.4-2.3.6-1.7 1.8-2.9 3.5-3.5.9-.3 1.8-.5 2.7-.5h2.6c.4 0 .7.1 1.1.1.2 0 .2.1.2.2v4.1c0 .2-.1.3-.2.3h-2c-.6 0-1.1 0-1.7.1-.8.1-1.3.6-1.3 1.4 0 .7 0 1.4-.1 2v2c0 .3 0 .3.2.3h4.7c.3 0 .3 0 .3.3 0 1-.1 2.1-.1 3.1v1.2c0 .3-.3.3-.3.3h-4.4s-.4 0-.4.3v12.9c0 .4 0 .5-.5.5H21c-.3 0-.4 0-.4-.4v-6.5-6.4c0-.4-.4-.4-.4-.4h-2.9c-.3 0-.3 0-.3-.3v-4.3c.1-.3.2-.4.5-.4z" fill="#fff"/><path d="M-.2-.2v48.8c.1 0 .2.1.3.1h48c.1 0 .3 0 .4-.1V-.2H-.2zm39.7 15c-.8 1.1-1.7 2.1-2.8 2.9-.2.1-.2.3-.2.5 0 .7 0 1.3-.1 2-.3 3.3-1.4 6.3-3.2 9-2.9 4.3-7 6.8-12.1 7.5-.5.1-1 .1-1.5.2h-2.4c-.1 0-.2-.1-.3-.1-2.9-.2-5.5-1.1-8-2.6-.1-.1-.2-.1-.2-.2 1.7.1 3.3 0 4.9-.5 1.6-.4 3-1.2 4.4-2.2-3-.4-5.6-2.3-5.8-4.4h1.3c.4 0 .9-.1 1.3-.1v-.1c-1.4-.4-2.6-1.1-3.6-2.3-.9-1.2-1.4-2.5-1.4-4 .9.4 1.8.7 2.8.8-3.4-2.5-3.2-6.5-1.9-8.5 1.6 2 3.6 3.6 5.9 4.7 2.3 1.2 4.7 1.8 7.2 1.9v-.2c-.7-3.4 1.4-6.7 4.8-7.5 2.9-.7 5 .7 6 1.7.1.1.2.1.3.1.5-.1 1.1-.2 1.6-.4.8-.3 1.5-.6 2.3-1-.5 1.4-1.4 2.5-2.6 3.4 1.2-.1 2.4-.4 3.4-.9 0 .2-.1.2-.1.3z" fill="#5aa8df"/></svg>