<svg id="Layer_1" xmlns="http://www.w3.org/2000/svg" viewBox="0 0 48.4 48.3"><style>.st0{fill:#fff}</style><path class="st0" d="M.3 48.4h47.8c.1 0 .3 0 .4-.1V-.2H-.1v48.5c.1 0 .2.1.3.1h.1zm17.2-28.3h3c.2 0 .2-.1.2-.2V16c0-.8.1-1.6.4-2.3.6-1.7 1.8-2.9 3.5-3.5.9-.3 1.8-.5 2.7-.5h2.6c.4 0 .7.1 1.1.1.2 0 .2.1.2.2v4.1c0 .2-.1.3-.2.3h-2c-.6 0-1.1 0-1.7.1-.8.1-1.3.6-1.3 1.4 0 .7 0 1.4-.1 2v2c0 .3 0 .3.2.3h4.7c.3 0 .3 0 .3.3 0 1-.1 2.1-.1 3.1v1.2c0 .3-.3.3-.3.3h-4.4s-.4 0-.4.3v12.9c0 .4 0 .5-.5.5H21c-.3 0-.4 0-.4-.4v-6.5-6.4c0-.4-.4-.4-.4-.4h-2.9c-.3 0-.3 0-.3-.3v-4.3c.1-.3.2-.4.5-.4z"/><path class="st0" d="M0-.3v48.5c.1 0 .2.1.3.1h47.9c.1 0 .3 0 .4-.1V-.3H0zm15.6 36.1c-1.8 0-3.2-1.5-3.2-3.3 0-1.8 1.5-3.2 3.3-3.1 1.8 0 3.2 1.5 3.2 3.3 0 1.7-1.5 3.1-3.3 3.1zm8 0c-.1-3.1-1.2-5.7-3.4-7.8-2.1-2.1-4.7-3.2-7.7-3.3v-4.6c3.8.1 7.1 1.3 10 3.7 3.7 3.1 5.5 7.1 5.7 12h-4.6zm7.8-.1c-.1-5.1-1.9-9.6-5.6-13.3-3.7-3.6-8.1-5.4-13.3-5.4v-4.8c5.7 0 10.8 1.8 15.1 5.4 5.6 4.7 8.3 10.8 8.5 18.1h-4.7z"/></svg>