<svg id="Layer_1" xmlns="http://www.w3.org/2000/svg" viewBox="0 0 48.4 48.3"><style>.st0{fill:#fff}</style><path class="st0" d="M.3 48.4h47.8c.1 0 .3 0 .4-.1V-.2H-.1v48.5c.1 0 .2.1.3.1h.1zm17.2-28.3h3c.2 0 .2-.1.2-.2V16c0-.8.1-1.6.4-2.3.6-1.7 1.8-2.9 3.5-3.5.9-.3 1.8-.5 2.7-.5h2.6c.4 0 .7.1 1.1.1.2 0 .2.1.2.2v4.1c0 .2-.1.3-.2.3h-2c-.6 0-1.1 0-1.7.1-.8.1-1.3.6-1.3 1.4 0 .7 0 1.4-.1 2v2c0 .3 0 .3.2.3h4.7c.3 0 .3 0 .3.3 0 1-.1 2.1-.1 3.1v1.2c0 .3-.3.3-.3.3h-4.4s-.4 0-.4.3v12.9c0 .4 0 .5-.5.5H21c-.3 0-.4 0-.4-.4v-6.5-6.4c0-.4-.4-.4-.4-.4h-2.9c-.3 0-.3 0-.3-.3v-4.3c.1-.3.2-.4.5-.4z"/><path class="st0" d="M-.4 48.6V-.5h49.1v49.1H-.4zm24.5-6.1h9.6c3.1 0 5.3-2.1 5.3-5.2v-9.2c0-3-2.1-5.2-5.1-5.2H14.4c-2.9 0-5.1 2.2-5.1 5v9.7c0 2.8 2.2 4.9 5 4.9h9.8zM22.4 5.7h-1.8c-.4 0-.6.1-.6.5-.1.5-.3 1.1-.5 1.6-.3 1.1-.7 2.2-1 3.4-.1-.3-.2-.4-.2-.6-.5-1.5-.9-3-1.4-4.4-.1-.2-.2-.5-.4-.5-.7-.1-1.4 0-2.1 0 .1.2.1.3.1.4.6 1.6 1.1 3.2 1.7 4.7.7 1.9 1.4 3.9 1.2 6-.1 1.2 0 2.3 0 3.5h2.1v-.7-5c0-.3.1-.7.2-1 .6-1.7 1.2-3.4 1.8-5.2.2-.7.5-1.7.9-2.7zm4.9 9.5c-.1-1.3-.1-2.4-.3-3.5-.2-1.6-1.2-2.6-2.6-2.6-1.5 0-2.5.7-2.8 2.4-.4 2.3-.4 4.7 0 7 .3 1.5 1.2 2.3 2.6 2.3 1.4 0 2.4-.7 2.7-2.2.2-1.2.3-2.4.4-3.4zm1.1-5.7v9.4c0 .2.1.4.1.6.2.6.6 1.1 1.3 1.2.8.1 1.4-.1 1.9-.7.1-.1.2-.2.3-.4 0 .3 0 .6.1.8H34V9.5h-1.9v6.8c0 .6 0 1.1-.2 1.7-.1.3-.5.6-.8.5-.2 0-.5-.4-.7-.6-.1-.1-.1-.3-.1-.4 0-2.4 0-4.8-.1-7.2v-.7c-.6-.1-1.2-.1-1.8-.1z"/><path class="st0" d="M26.5 29.8c.4-.3.6-.5.9-.7.7-.3 1.6-.1 1.8.7.3.8.5 1.7.5 2.5.1 1.4 0 2.8-.1 4.2 0 .5-.2 1-.4 1.5-.6 1.1-1.8 1.2-2.5.2 0-.1-.1-.1-.2-.2 0 .3-.1.4-.1.6h-1.5V26.2h1.6v3.6zm-.1 4.2c.1.8.1 1.6.2 2.4 0 .4.3.8.7.7.3-.1.6-.5.6-.7.1-1.6.1-3.1 0-4.7 0-.4-.2-.8-.7-.7-.3.1-.6.4-.7.7 0 .7 0 1.5-.1 2.3zM35.9 34.3h-2.8c-.4 0-.6.1-.5.5.1.6 0 1.1.1 1.7.1.3.4.5.7.8.2-.3.6-.5.7-.8.1-.3.1-.6.2-1h1.5c0 .9 0 1.8-.5 2.5-.8 1.2-3.2 1.2-3.8-.2-.4-.7-.5-1.6-.6-2.4 0-1.5 0-3.1.2-4.6.2-1.3 1.1-1.9 2.4-1.9 1.2 0 2 .6 2.2 1.9.1 1.2.1 2.3.2 3.5zm-3.4-1.6c1.7.2 1.9 0 1.6-1.4v-.1c-.2-.2-.4-.5-.6-.5-.2 0-.6.2-.7.4-.2.6-.2 1.1-.3 1.6zM21.7 29.3H23c.1 0 .3.2.3.3v8.9l-.1.1h-1.4c0-.2-.1-.4-.2-.6-.2.2-.3.3-.4.5-.7.7-1.9.5-2.3-.5-.2-.5-.3-1-.3-1.5V30c0-.6.2-.8.8-.7h.3c.5-.1.6.1.6.6v5.9c0 .3 0 .6.1.8.1.2.4.5.6.5.2 0 .5-.2.6-.4.1-.3.2-.6.2-.9-.1-2.2-.1-4.3-.1-6.5zM12.8 26.2h5.8v2h-1.4c-.5 0-.6.1-.6.6v9.8h-1.8v-.7-9c0-.6-.2-.7-.7-.7h-1.3v-2zM25.2 14.9v2.2c0 .3 0 .7-.2 1-.2.3-.5.6-.8.6-.3 0-.6-.3-.7-.6-.2-.3-.2-.7-.2-1v-4.4c0-.4.1-.8.3-1.1.3-.6 1.1-.7 1.4 0 .2.4.3.8.3 1.2-.1.7-.1 1.4-.1 2.1z"/></svg>