<svg id="Layer_1" data-name="Layer 1" xmlns="http://www.w3.org/2000/svg" xmlns:xlink="http://www.w3.org/1999/xlink" viewBox="0 0 507.74 415.42"><defs><style>.cls-1{fill:#0c9d58;}.cls-2{fill:#004d40;}.cls-10,.cls-2,.cls-3,.cls-5,.cls-9{opacity:0.2;}.cls-2,.cls-3,.cls-5,.cls-9{isolation:isolate;}.cls-3,.cls-8{fill:#fff;}.cls-4{fill:#ea4335;}.cls-5{fill:#3e2723;}.cls-6{fill:#ffc107;}.cls-7{fill:#4285f4;}.cls-11,.cls-9{fill:#1a237e;}.cls-12{fill:url(#radial-gradient);}</style><radialGradient id="radial-gradient" cx="114.43" cy="397.76" r="493.77" gradientTransform="matrix(1, 0, 0, -1, 0, 431.41)" gradientUnits="userSpaceOnUse"><stop offset="0" stop-color="#fff" stop-opacity="0.1"/><stop offset="1" stop-color="#fff" stop-opacity="0"/></radialGradient></defs><title>google-news</title><path class="cls-1" d="M403.88,281.8a12.94,12.94,0,0,1-12.95,12.85H116.8a12.94,12.94,0,0,1-13-12.85V12.86A13,13,0,0,1,116.8,0H390.93a12.94,12.94,0,0,1,12.95,12.86V281.8Z"/><polygon class="cls-2" points="403.88 69.14 301.14 55.91 403.88 83.48 403.88 69.14"/><path class="cls-2" d="M258.82,14,103.24,83.49l172-62.59v-.17c-3-6.48-10.39-9.5-16.37-6.71Z"/><path class="cls-3" d="M390.93,0H116.8a13,13,0,0,0-13,12.86v2.88a13,13,0,0,1,13-12.86H390.93a12.94,12.94,0,0,1,12.95,12.86V12.86A12.94,12.94,0,0,0,390.93,0Z"/><path class="cls-4" d="M170.38,273.53c-1.86,6.91,1.84,14,8.21,15.66l253.9,68.28c6.37,1.71,13.1-2.55,14.95-9.45L507.25,124.8c1.85-6.91-1.85-14-8.22-15.66L245.13,40.85c-6.37-1.7-13.1,2.55-14.94,9.46Z"/><polygon class="cls-5" points="450.04 204.47 463.39 285.6 450.04 335.46 450.04 204.47"/><polygon class="cls-5" points="302.34 59.22 314.31 62.44 321.73 112.51 302.34 59.22"/><path class="cls-3" d="M499,109.14,245.14,40.85c-6.37-1.7-13.1,2.55-14.94,9.46L170.38,273.53c-.1.38-.12.75-.19,1.13L229.55,53.12c1.86-6.9,8.58-11.16,14.95-9.45L498.4,112c6,1.61,9.59,8,8.41,14.54l.45-1.69c1.85-6.91-1.85-14-8.22-15.66Z"/><path class="cls-6" d="M370.34,246c2.44,6.72-.63,14.06-6.82,16.32L95.6,359.87c-6.2,2.25-13.27-1.4-15.71-8.12L.84,134.59c-2.44-6.72.63-14.06,6.82-16.31L275.59,20.76c6.2-2.25,13.26,1.4,15.71,8.12Z"/><path class="cls-3" d="M1.86,137.33c-2.44-6.72.63-14.06,6.82-16.32L276.6,23.49c6.13-2.23,13.1,1.33,15.62,7.91l-.92-2.53c-2.45-6.72-9.52-10.37-15.71-8.11L7.66,118.28c-6.2,2.25-9.27,9.59-6.82,16.31L79.89,351.75a2,2,0,0,0,.1.21Z"/><path class="cls-7" d="M450,402.44a13,13,0,0,1-13,13H70.68a13,13,0,0,1-13-13V125.49a13,13,0,0,1,13-13H437.06a13,13,0,0,1,13,13Z"/><path class="cls-8" d="M380.08,222.14H270.45V193.29H380.08a5.77,5.77,0,0,1,5.77,5.77v17.3A5.77,5.77,0,0,1,380.08,222.14Zm0,109.62H270.45V302.91H380.08a5.77,5.77,0,0,1,5.77,5.77V326A5.77,5.77,0,0,1,380.08,331.76Zm17.31-54.82H270.45V248.09H397.39a5.78,5.78,0,0,1,5.77,5.77v17.31a5.77,5.77,0,0,1-5.77,5.77Z"/><path class="cls-9" d="M437.06,412.54H70.68a13,13,0,0,1-13-13v2.89a13,13,0,0,0,13,13H437.06a13,13,0,0,0,13-13v-2.89A13,13,0,0,1,437.06,412.54Z"/><path class="cls-3" d="M70.68,115.39H437.06a13,13,0,0,1,13,13v-2.89a13,13,0,0,0-13-13H70.68a13,13,0,0,0-13,13v2.89a13,13,0,0,1,13-13Z"/><path class="cls-8" d="M172.37,251v26H209.7c-3.08,15.85-17,27.34-37.33,27.34-22.66,0-41-19.17-41-41.83s18.38-41.83,41-41.83a37.61,37.61,0,0,1,26.56,10.38v0l19.76-19.76a66.51,66.51,0,0,0-46.33-18,69.24,69.24,0,1,0,0,138.47c40,0,66.29-28.11,66.29-67.66A83.11,83.11,0,0,0,237.56,251Z"/><g class="cls-10"><path class="cls-11" d="M173.09,277v2.88h36.64q.41-1.42.69-2.88Z"/><path class="cls-11" d="M173.09,331.76a69.22,69.22,0,0,1-69.2-67.8c0,.48,0,1,0,1.44a69.24,69.24,0,0,0,69.24,69.24c40,0,66.29-28.11,66.29-67.66,0-.32,0-.62,0-.93C238.48,304.57,212.42,331.76,173.09,331.76Zm26.56-100.69a37.65,37.65,0,0,0-26.56-10.38c-22.66,0-41,19.17-41,41.83,0,.49,0,1,.07,1.44.77-22,18.79-40.39,41-40.39A37.55,37.55,0,0,1,199.65,234h0l21.2-21.2c-.5-.46-1-.87-1.56-1.32l-19.63,19.64Z"/></g><path class="cls-9" d="M385.85,219.25v-2.89a5.77,5.77,0,0,1-5.77,5.77H270.45V225H380.08a5.75,5.75,0,0,0,5.77-5.76Zm-5.77,112.51H270.45v2.88H380.08a5.77,5.77,0,0,0,5.77-5.77V326A5.77,5.77,0,0,1,380.08,331.76Zm17.31-54.82H270.45v2.89H397.39a5.77,5.77,0,0,0,5.77-5.77v-2.88a5.77,5.77,0,0,1-5.77,5.76Z"/><path class="cls-12" d="M499,109.14,403.88,83.55V12.86A12.94,12.94,0,0,0,390.93,0H116.8a13,13,0,0,0-13,12.86V83.27l-96.19,35c-6.2,2.25-9.27,9.59-6.82,16.31L57.7,290.8V402.44a13,13,0,0,0,13,13H437.06a13,13,0,0,0,13-13V338.35L507.26,124.8c1.85-6.91-1.85-14-8.22-15.66Z"/></svg>