<?xml version="1.0" encoding="UTF-8"?>
<!DOCTYPE svg PUBLIC "-//W3C//DTD SVG 1.1//EN"
          "http://www.w3.org/Graphics/SVG/1.1/DTD/svg11.dtd">
<svg xmlns="http://www.w3.org/2000/svg"
     xmlns:xlink="http://www.w3.org/1999/xlink">
  <defs/>
  <symbol id="account settings icon" viewBox="0 0 240.2 240.7">
    <path d="M227.1 98.1h-14.7c-2.4-10.7-6.6-20.7-12.3-29.6L210.5 58c2.9-2.9
    2.9-7.7 0-10.6l-18-18c-2.9-2.9-7.7-2.9-10.6 0l-10.4
    10.4c-8.9-5.7-18.9-9.9-29.6-12.3V12.8c0-4.1-3.4-7.5-7.5-7.5h-25.5c-4.1 0-7.5
    3.4-7.5 7.5v14.7c-10.7 2.4-20.7 6.6-29.6 12.3L61.3
    29.4c-2.9-2.9-7.7-2.9-10.6 0l-18 18c-2.9 2.9-2.9 7.7 0 10.6l10.4 10.4c-5.7
    8.9-9.9 18.9-12.3 29.6H16.1c-4.1 0-7.5 3.4-7.5 7.5V131c0 4.1 3.4 7.5 7.5
    7.5h14.7c2.4 10.7 6.6 20.7 12.3 29.6l-10.4 10.4c-2.9 2.9-2.9 7.7 0 10.6l18
    18c2.9 2.9 7.7 2.9 10.6 0l10.4-10.4c8.9 5.7 18.9 9.9 29.6 12.3v14.7c0 4.1
    3.4 7.5 7.5 7.5h25.5c4.1 0 7.5-3.4 7.5-7.5V209c10.7-2.4 20.7-6.6
    29.6-12.3l10.4 10.4c2.9 2.9 7.7 2.9 10.6 0l18-18c2.9-2.9 2.9-7.7 0-10.6L200
    168.1c5.7-8.9 9.9-18.9 12.3-29.6H227c4.1 0 7.5-3.4
    7.5-7.5v-25.5c.1-4.1-3.3-7.4-7.4-7.4zm-105.5 80.2c-33.1
    0-60-26.9-60-60s26.9-60 60-60 60 26.9 60 60-26.9 60-60 60z" fill="#fff"/>
  </symbol>
  <symbol id="arrow" viewBox="0 0 11.8 7.9">
    <path fill="none" stroke="#fff" stroke-width="2" stroke-miterlimit="10"
          d="M.7 1.3L5.9 6 11 1.3"/>
  </symbol>
  <symbol id="article share_email_mouseover" viewBox="0 0 48.7 48.4">
    <path d="M0-.3v48.5c.1 0 .2.1.3.1h47.9c.1 0 .3 0 .4-.1V-.3H0zm11.9
    14.6h24.8c.5 0 .9 0 1.3.4-4.6 3.8-9.1 7.6-13.7
    11.4-4.6-3.8-9.1-7.6-13.7-11.4.4-.3.8-.4 1.3-.4zm26.7 3v14.4c0 1.4-.6 2-2
    2H12c-1.4 0-2-.6-2-2V17.3v-.6c4.8 4 9.6 8 14.3 11.9 4.8-4 9.5-7.9
    14.3-11.9v.6z"fill="#ed1e79"/>
  </symbol>
  <symbol id="article share_email" viewBox="0 0 48.7 48.4">
    <path d="M0-.3v48.5c.1 0 .2.1.3.1h47.9c.1 0 .3 0 .4-.1V-.3H0zm11.9
    14.6h24.8c.5 0 .9 0 1.3.4-4.6 3.8-9.1 7.6-13.7
    11.4-4.6-3.8-9.1-7.6-13.7-11.4.4-.3.8-.4 1.3-.4zm26.7 3v14.4c0 1.4-.6 2-2
    2H12c-1.4 0-2-.6-2-2V17.3v-.6c4.8 4 9.6 8 14.3 11.9 4.8-4 9.5-7.9
    14.3-11.9v.6z"fill="#738488"/>
  </symbol>
  <symbol id="article share_facebook_mouseover" viewBox="0 0 48.7 48.4">
    <path d="M.5 48.5h47.8c.1 0 .3 0 .4-.1V-.1H.1v48.5c.1 0 .2.1.4.1-.1 0 0 0 0
    0zm17.1-28.3h3c.2 0 .2-.1.2-.2v-3.9c0-.8.1-1.6.4-2.3.6-1.7 1.8-2.9
    3.5-3.5.9-.3 1.8-.5 2.7-.5H30c.4 0 .7.1 1.1.1.2 0 .2.1.2.2v4.1c0
    .2-.1.3-.2.3h-2c-.6 0-1.1 0-1.7.1-.8.1-1.3.6-1.3 1.4 0 .7 0 1.4-.1 2v2c0 .3
    0 .3.2.3h4.7c.3 0 .3 0 .3.3 0 1-.1 2.1-.1 3.1v1.2c0 .3-.3.3-.3.3h-4.4s-.4
    0-.4.3v12.9c0 .4 0 .5-.5.5h-4.4c-.3 0-.4
    0-.4-.4V32v-6.4c0-.4-.4-.4-.4-.4h-2.9c-.3 0-.3
    0-.3-.3v-4.3c.2-.4.2-.4.5-.4z" fill="#4c70a6"/>
  </symbol>
  <symbol id="article share_facebook" viewBox="0 0 48.7 48.4">
    <path d="M.5 48.5h47.8c.1 0 .3 0 .4-.1V-.1H.1v48.5c.1 0
    .2.1.3.1h.1zm17.1-28.3h3c.2 0 .2-.1.2-.2v-3.9c0-.8.1-1.6.4-2.3.6-1.7 1.8-2.9
    3.5-3.5.9-.3 1.8-.5 2.7-.5H30c.4 0 .7.1 1.1.1.2 0 .2.1.2.2v4.1c0
    .2-.1.3-.2.3h-2c-.6 0-1.1 0-1.7.1-.8.1-1.3.6-1.3 1.4 0 .7 0 1.4-.1 2v2c0 .3
    0 .3.2.3h4.7c.3 0 .3 0 .3.3 0 1-.1 2.1-.1 3.1v1.2c0 .3-.3.3-.3.3h-4.4s-.4
    0-.4.3v12.9c0 .4 0 .5-.5.5h-4.4c-.3 0-.4
    0-.4-.4V32v-6.4c0-.4-.4-.4-.4-.4h-2.9c-.3 0-.3
    0-.3-.3v-4.3c.2-.4.2-.4.5-.4z" fill="#738488"/>
  </symbol>
  <symbol id="article share_print_mouseover" viewBox="0 0 48.7 48.4">
    <style>.st0{fill:#f37b20}
    </style>
    <path class="st0" d="M16.3 37.2h16.1v-11H16.3v11zm13.3-3.6H19.2c-.6
                         0-1-.3-1-.9 0-.6.4-.9 1-.9h10.3c.7 0 1.1.4 1.1
                         1-.1.4-.4.8-1 .8zM19.2 28h10.2c.8 0 1.2.5 1.1
                         1.1-.1.4-.4.7-.9.7H19.3c-.7
                         0-1-.3-1-.9-.1-.5.3-.9.9-.9zM32.4
                         11.5H16.3V17h16.1v-5.5z"/>
    <path class="st0" d="M.1.1v48.5c.1 0 .2.1.3.1h47.9c.1 0 .3 0
                         .4-.1V.1H.1zm36.2 32.5h-2.1V38c0 .7-.3 1-1 1H15.5c-.7
                         0-1-.3-1-1v-4.7-.7h-1.9c-1.7 0-2.9-1.2-2.9-2.9V20c0-1.9
                         1.1-3.1 3.1-3.1h1.8v-2.4-4c0-.7.3-1 1-1h17.7c.7 0 1 .3
                         1 1.1v6.3h2c1.6 0 2.8 1.2 2.8 2.7v10.2c0 1.6-1.3
                         2.8-2.8 2.8z"/>
    <path class="st0" d="M35.2 19.7c-.5 0-1 .5-1 1s.5 1 1 1c.6 0 1.1-.5 1.1-1.1
    0-.4-.5-.9-1.1-.9z"/>
  </symbol>
  <symbol id="article share_print" viewBox="0 0 48.7 48.4">
    <style>.st0{fill:#738488}
    </style>
    <path class="st0" d="M16.3 37.2h16.1v-11H16.3v11zm13.3-3.6H19.2c-.6
                         0-1-.3-1-.9 0-.6.4-.9 1-.9h10.3c.7 0 1.1.4 1.1
                         1-.1.4-.4.8-1 .8zM19.2 28h10.2c.8 0 1.2.5 1.1
                         1.1-.1.4-.4.7-.9.7H19.3c-.7
                         0-1-.3-1-.9-.1-.5.3-.9.9-.9zM32.4
                         11.5H16.3V17h16.1v-5.5z"/>
    <path class="st0" d="M.1.1v48.5c.1 0 .2.1.3.1h47.9c.1 0 .3 0
                         .4-.1V.1H.1zm36.2 32.5h-2.1V38c0 .7-.3 1-1 1H15.5c-.7
                         0-1-.3-1-1v-4.7-.7h-1.9c-1.7 0-2.9-1.2-2.9-2.9V20c0-1.9
                         1.1-3.1 3.1-3.1h1.8v-2.4-4c0-.7.3-1 1-1h17.7c.7 0 1 .3
                         1 1.1v6.3h2c1.6 0 2.8 1.2 2.8 2.7v10.2c0 1.6-1.3
                         2.8-2.8 2.8z"/>
    <path class="st0" d="M35.2 19.7c-.5 0-1 .5-1 1s.5 1 1 1c.6 0 1.1-.5 1.1-1.1
    0-.4-.5-.9-1.1-.9z"/>
  </symbol>
  <symbol id="article share_republish_mouseover" viewBox="0 0 48.7 48.4">
    <path d="M0 0v48.5c.1 0 .2.1.3.1h47.9c.1 0 .3 0 .4-.1V0H0zm17.1 30.5h-4.7c-1
    0-1.8-1-1.8-2.1v-2-14c0-1.6.8-2.4 2.4-2.4h14.8c1.5 0 2.4.8 2.4
    2.4v4.3h-1.7v-.4-3.9c0-.5-.1-.7-.6-.7h-15c-.5 0-.6.1-.6.7v15.8c0
    .6.1.7.7.7h3.6c.5 0 .6.1.6.6-.1.3-.1.6-.1
    1zm-2.4-7.9c-.2-.9-.4-1.8-.5-2.7-.1-.4.2-.7.6-.9.4-.1.7 0 1 .4.1.1.1.2.2.3.7
    1.3 1.5 2.5 2.6 3.5 1.8 1.8 4 2.7 6.5 2.9h.5V24c0-.4.1-.8.5-1 .4-.2.8 0
    1.1.4l4.4 4.4c.6.6.6 1 0 1.5-1.5 1.5-3 2.9-4.4
    4.4-.3.3-.6.5-1.1.3-.4-.2-.5-.5-.5-1v-2.1c-1.2-.2-2.3-.3-3.4-.6-4.1-1.1-6.4-3.8-7.5-7.7zM38
    36.3c0 1.4-.9 2.3-2.3 2.3H20.6c-1.4 0-2.2-.9-2.2-2.3v-5.8-.4c.5.3 1 .5
    1.5.8.1.1.2.3.2.4v4.8c0 .6.1.7.7.7h14.9c.6 0
    .7-.1.7-.7V20.3c0-.6-.1-.7-.7-.7H20.8c-.6
    0-.7.1-.7.7v2.6c-.4-.4-.7-.7-1.1-1-.9-.8-.7-1.7-.4-2.6.3-.9 1.1-1.3
    2.1-1.3h15c1.4 0 2.3.9 2.3 2.3v16z" fill="#00a651"/>
  </symbol>
  <symbol id="article share_republish" viewBox="0 0 48.7 48.4">
    <path d="M0 0v48.5c.1 0 .2.1.3.1h47.9c.1 0 .3 0 .4-.1V0H0zm17.1 30.5h-4.7c-1
    0-1.8-1-1.8-2.1v-2-14c0-1.6.8-2.4 2.4-2.4h14.8c1.5 0 2.4.8 2.4
    2.4v4.3h-1.7v-.4-3.9c0-.5-.1-.7-.6-.7h-15c-.5 0-.6.1-.6.7v15.8c0
    .6.1.7.7.7h3.6c.5 0 .6.1.6.6-.1.3-.1.6-.1
    1zm-2.4-7.9c-.2-.9-.4-1.8-.5-2.7-.1-.4.2-.7.6-.9.4-.1.7 0 1 .4.1.1.1.2.2.3.7
    1.3 1.5 2.5 2.6 3.5 1.8 1.8 4 2.7 6.5 2.9h.5V24c0-.4.1-.8.5-1 .4-.2.8 0
    1.1.4l4.4 4.4c.6.6.6 1 0 1.5-1.5 1.5-3 2.9-4.4
    4.4-.3.3-.6.5-1.1.3-.4-.2-.5-.5-.5-1v-2.1c-1.2-.2-2.3-.3-3.4-.6-4.1-1.1-6.4-3.8-7.5-7.7zM38
    36.3c0 1.4-.9 2.3-2.3 2.3H20.6c-1.4 0-2.2-.9-2.2-2.3v-5.8-.4c.5.3 1 .5
    1.5.8.1.1.2.3.2.4v4.8c0 .6.1.7.7.7h14.9c.6 0
    .7-.1.7-.7V20.3c0-.6-.1-.7-.7-.7H20.8c-.6
    0-.7.1-.7.7v2.6c-.4-.4-.7-.7-1.1-1-.9-.8-.7-1.7-.4-2.6.3-.9 1.1-1.3
    2.1-1.3h15c1.4 0 2.3.9 2.3 2.3v16z" fill="#738488"/>
  </symbol>
  <symbol id="article share_twitter_mouseover" viewBox="0 0 48.7 48.4">
    <path d="M-.1.1v48.5c.1 0 .2.1.3.1h47.9c.1 0 .3 0 .4-.1V.1H-.1zM39.5 15c-.8
    1.1-1.7 2.1-2.8 2.9-.2.1-.2.3-.2.5 0 .7 0 1.3-.1 2-.3 3.3-1.4 6.2-3.2
    8.9-2.9 4.2-7 6.7-12.1 7.5-.5.1-1 .1-1.5.2h-2.4c-.1
    0-.2-.1-.3-.1-2.8-.2-5.5-1.1-7.9-2.6-.1-.1-.2-.1-.2-.2 1.7.1 3.3 0 4.9-.5
    1.6-.4 3-1.2 4.4-2.2-3-.4-5.5-2.3-5.8-4.3h1.3c.4 0 .9-.1
    1.3-.1v-.1c-1.4-.4-2.6-1.1-3.5-2.3-.9-1.2-1.4-2.5-1.4-4 .9.4 1.8.7
    2.8.8-3.4-2.5-3.2-6.5-1.9-8.4 1.6 2 3.6 3.5 5.8 4.7 2.3 1.1 4.7 1.8 7.2
    1.9v-.2c-.7-3.4 1.4-6.6 4.8-7.4 2.9-.7 5 .7 6 1.7.1.1.2.1.3.1.5-.1 1.1-.2
    1.6-.4.8-.3 1.5-.6 2.2-1-.5 1.4-1.4 2.5-2.6 3.4 1.2-.1 2.3-.4 3.4-.90 0 0
    .1-.1.1z" fill="#5ba6db"/>
  </symbol>
  <symbol id="article share_twitter" viewBox="0 0 48.7 48.4">
    <path d="M-.1.1v48.5c.1 0 .2.1.3.1h47.9c.1 0 .3 0 .4-.1V.1H-.1zM39.5 15c-.8
    1.1-1.7 2.1-2.8 2.9-.2.1-.2.3-.2.5 0 .7 0 1.3-.1 2-.3 3.3-1.4 6.2-3.2
    8.9-2.9 4.2-7 6.7-12.1 7.5-.5.1-1 .1-1.5.2h-2.4c-.1
    0-.2-.1-.3-.1-2.8-.2-5.5-1.1-7.9-2.6-.1-.1-.2-.1-.2-.2 1.7.1 3.3 0 4.9-.5
    1.6-.4 3-1.2 4.4-2.2-3-.4-5.5-2.3-5.8-4.3h1.3c.4 0 .9-.1
    1.3-.1v-.1c-1.4-.4-2.6-1.1-3.5-2.3-.9-1.2-1.4-2.5-1.4-4 .9.4 1.8.7
    2.8.8-3.4-2.5-3.2-6.5-1.9-8.4 1.6 2 3.6 3.5 5.8 4.7 2.3 1.1 4.7 1.8 7.2
    1.9v-.2c-.7-3.4 1.4-6.6 4.8-7.4 2.9-.7 5 .7 6 1.7.1.1.2.1.3.1.5-.1 1.1-.2
    1.6-.4.8-.3 1.5-.6 2.2-1-.5 1.4-1.4 2.5-2.6 3.4 1.2-.1 2.3-.4 3.4-.90 0 0
    .1-.1.1z" fill="#738488"/>
  </symbol>
  <symbol id="Footer_facebook_mouseover" viewBox="0 0 48.4 48.3">
    <path d="M.3 48.4h47.8c.1 0 .3 0 .4-.1V-.2H-.1v48.5c.1 0
    .2.1.3.1h.1zm17.2-28.3h3c.2 0 .2-.1.2-.2V16c0-.8.1-1.6.4-2.3.6-1.7 1.8-2.9
    3.5-3.5.9-.3 1.8-.5 2.7-.5h2.6c.4 0 .7.1 1.1.1.2 0 .2.1.2.2v4.1c0
    .2-.1.3-.2.3h-2c-.6 0-1.1 0-1.7.1-.8.1-1.3.6-1.3 1.4 0 .7 0 1.4-.1 2v2c0 .3
    0 .3.2.3h4.7c.3 0 .3 0 .3.3 0 1-.1 2.1-.1 3.1v1.2c0 .3-.3.3-.3.3h-4.4s-.4
    0-.4.3v12.9c0 .4 0 .5-.5.5H21c-.3 0-.4
    0-.4-.4v-6.5-6.4c0-.4-.4-.4-.4-.4h-2.9c-.3 0-.3
    0-.3-.3v-4.3c.1-.3.2-.4.5-.4z" fill="#4c70a6"/>
  </symbol>
  <symbol id="Footer_facebook" viewBox="0 0 48.4 48.3">
    <path d="M.3 48.4h47.8c.1 0 .3 0 .4-.1V-.2H-.1v48.5c.1 0
    .2.1.3.1h.1zm17.2-28.3h3c.2 0 .2-.1.2-.2V16c0-.8.1-1.6.4-2.3.6-1.7 1.8-2.9
    3.5-3.5.9-.3 1.8-.5 2.7-.5h2.6c.4 0 .7.1 1.1.1.2 0 .2.1.2.2v4.1c0
    .2-.1.3-.2.3h-2c-.6 0-1.1 0-1.7.1-.8.1-1.3.6-1.3 1.4 0 .7 0 1.4-.1 2v2c0 .3
    0 .3.2.3h4.7c.3 0 .3 0 .3.3 0 1-.1 2.1-.1 3.1v1.2c0 .3-.3.3-.3.3h-4.4s-.4
    0-.4.3v12.9c0 .4 0 .5-.5.5H21c-.3 0-.4
    0-.4-.4v-6.5-6.4c0-.4-.4-.4-.4-.4h-2.9c-.3 0-.3
    0-.3-.3v-4.3c.1-.3.2-.4.5-.4z" fill="#fff"/>
  </symbol>
  <symbol id="Footer_RSS-01" viewBox="0 0 48.4 48.3">
    <style>.st0{fill:#fff}
    </style>
    <path class="st0" d="M.3 48.4h47.8c.1 0 .3 0 .4-.1V-.2H-.1v48.5c.1 0
                         .2.1.3.1h.1zm17.2-28.3h3c.2 0
                         .2-.1.2-.2V16c0-.8.1-1.6.4-2.3.6-1.7 1.8-2.9
                         3.5-3.5.9-.3 1.8-.5 2.7-.5h2.6c.4 0 .7.1 1.1.1.2 0
                         .2.1.2.2v4.1c0 .2-.1.3-.2.3h-2c-.6 0-1.1
                         0-1.7.1-.8.1-1.3.6-1.3 1.4 0 .7 0 1.4-.1 2v2c0 .3 0
                         .3.2.3h4.7c.3 0 .3 0 .3.3 0 1-.1 2.1-.1 3.1v1.2c0
                         .3-.3.3-.3.3h-4.4s-.4 0-.4.3v12.9c0 .4 0 .5-.5.5H21c-.3
                         0-.4 0-.4-.4v-6.5-6.4c0-.4-.4-.4-.4-.4h-2.9c-.3 0-.3
                         0-.3-.3v-4.3c.1-.3.2-.4.5-.4z"/>
    <path class="st0" d="M0-.3v48.5c.1 0 .2.1.3.1h47.9c.1 0 .3 0
                         .4-.1V-.3H0zm15.6 36.1c-1.8 0-3.2-1.5-3.2-3.3 0-1.8
                         1.5-3.2 3.3-3.1 1.8 0 3.2 1.5 3.2 3.3 0 1.7-1.5 3.1-3.3
                         3.1zm8
                         0c-.1-3.1-1.2-5.7-3.4-7.8-2.1-2.1-4.7-3.2-7.7-3.3v-4.6c3.8.1
                         7.1 1.3 10 3.7 3.7 3.1 5.5 7.1 5.7
                     12h-4.6zm7.8-.1c-.1-5.1-1.9-9.6-5.6-13.3-3.7-3.6-8.1-5.4-13.3-5.4v-4.8c5.7
                         0 10.8 1.8 15.1 5.4 5.6 4.7 8.3 10.8 8.5 18.1h-4.7z"/>
  </symbol>
  <symbol id="Footer_RSS_Mouseover-01" viewBox="0 0 48.4 48.3">
    <path d="M.3 48.4h47.8c.1 0 .3 0 .4-.1V-.2H-.1v48.5c.1 0
             .2.1.3.1h.1zm17.2-28.3h3c.2 0 .2-.1.2-.2V16c0-.8.1-1.6.4-2.3.6-1.7
             1.8-2.9 3.5-3.5.9-.3 1.8-.5 2.7-.5h2.6c.4 0 .7.1 1.1.1.2 0
             .2.1.2.2v4.1c0 .2-.1.3-.2.3h-2c-.6 0-1.1 0-1.7.1-.8.1-1.3.6-1.3 1.4
             0 .7 0 1.4-.1 2v2c0 .3 0 .3.2.3h4.7c.3 0 .3 0 .3.3 0 1-.1 2.1-.1
             3.1v1.2c0 .3-.3.3-.3.3h-4.4s-.4 0-.4.3v12.9c0 .4 0 .5-.5.5H21c-.3
             0-.4 0-.4-.4v-6.5-6.4c0-.4-.4-.4-.4-.4h-2.9c-.3 0-.3
             0-.3-.3v-4.3c.1-.3.2-.4.5-.4z" fill="#fff"/>
    <path d="M0-.3v48.5c.1 0 .2.1.3.1h47.9c.1 0 .3 0 .4-.1V-.3H0zm15.6 36.1c-1.8
             0-3.2-1.5-3.2-3.3 0-1.8 1.5-3.2 3.3-3.1 1.8 0 3.2 1.5 3.2 3.3 0
             1.7-1.5 3.1-3.3 3.1zm8
             0c-.1-3.1-1.2-5.7-3.4-7.8-2.1-2.1-4.7-3.2-7.7-3.3v-4.6c3.8.1 7.1
             1.3 10 3.7 3.7 3.1 5.5 7.1 5.7
             12h-4.6zm7.8-.1c-.1-5.1-1.9-9.6-5.6-13.3-3.7-3.6-8.1-5.4-13.3-5.4v-4.8c5.7
         0 10.8 1.8 15.1 5.4 5.6 4.7 8.3 10.8 8.5 18.1h-4.7z"
             fill="#ff7b00"/>
  </symbol>
  <symbol id="footer_twitter-01" viewBox="0 0 48.4 48.3">
    <style>.st0{fill:#fff}
    </style>
    <path class="st0" d="M.3 48.4h47.8c.1 0 .3 0 .4-.1V-.2H-.1v48.5c.1 0
                         .2.1.3.1h.1zm17.2-28.3h3c.2 0
                         .2-.1.2-.2V16c0-.8.1-1.6.4-2.3.6-1.7 1.8-2.9
                         3.5-3.5.9-.3 1.8-.5 2.7-.5h2.6c.4 0 .7.1 1.1.1.2 0
                         .2.1.2.2v4.1c0 .2-.1.3-.2.3h-2c-.6 0-1.1
                         0-1.7.1-.8.1-1.3.6-1.3 1.4 0 .7 0 1.4-.1 2v2c0 .3 0
                         .3.2.3h4.7c.3 0 .3 0 .3.3 0 1-.1 2.1-.1 3.1v1.2c0
                         .3-.3.3-.3.3h-4.4s-.4 0-.4.3v12.9c0 .4 0 .5-.5.5H21c-.3
                         0-.4 0-.4-.4v-6.5-6.4c0-.4-.4-.4-.4-.4h-2.9c-.3 0-.3
                         0-.3-.3v-4.3c.1-.3.2-.4.5-.4z"/>
    <path class="st0" d="M-.2-.2v48.8c.1 0 .2.1.3.1h48c.1 0 .3 0
                         .4-.1V-.2H-.2zm39.7 15c-.8 1.1-1.7 2.1-2.8
                         2.9-.2.1-.2.3-.2.5 0 .7 0 1.3-.1 2-.3 3.3-1.4 6.3-3.2
                         9-2.9 4.3-7 6.8-12.1 7.5-.5.1-1 .1-1.5.2h-2.4c-.1
                         0-.2-.1-.3-.1-2.9-.2-5.5-1.1-8-2.6-.1-.1-.2-.1-.2-.2
                         1.7.1 3.3 0 4.9-.5 1.6-.4 3-1.2
                         4.4-2.2-3-.4-5.6-2.3-5.8-4.4h1.3c.4 0 .9-.1
                         1.3-.1v-.1c-1.4-.4-2.6-1.1-3.6-2.3-.9-1.2-1.4-2.5-1.4-4
                         .9.4 1.8.7 2.8.8-3.4-2.5-3.2-6.5-1.9-8.5 1.6 2 3.6 3.6
                         5.9 4.7 2.3 1.2 4.7 1.8 7.2 1.9v-.2c-.7-3.4 1.4-6.7
                         4.8-7.5 2.9-.7 5 .7 6 1.7.1.1.2.1.3.1.5-.1 1.1-.2
                         1.6-.4.8-.3 1.5-.6 2.3-1-.5 1.4-1.4 2.5-2.6 3.4 1.2-.1
                         2.4-.4 3.4-.9 0 .2-.1.2-.1.3z"/>
  </symbol>
  <symbol id="footer_twitter_mouseover-01" viewBox="0 0 48.4 48.3">
    <path d="M.3 48.4h47.8c.1 0 .3 0 .4-.1V-.2H-.1v48.5c.1 0
             .2.1.3.1h.1zm17.2-28.3h3c.2 0 .2-.1.2-.2V16c0-.8.1-1.6.4-2.3.6-1.7
             1.8-2.9 3.5-3.5.9-.3 1.8-.5 2.7-.5h2.6c.4 0 .7.1 1.1.1.2 0
             .2.1.2.2v4.1c0 .2-.1.3-.2.3h-2c-.6 0-1.1 0-1.7.1-.8.1-1.3.6-1.3 1.4
             0 .7 0 1.4-.1 2v2c0 .3 0 .3.2.3h4.7c.3 0 .3 0 .3.3 0 1-.1 2.1-.1
             3.1v1.2c0 .3-.3.3-.3.3h-4.4s-.4 0-.4.3v12.9c0 .4 0 .5-.5.5H21c-.3
             0-.4 0-.4-.4v-6.5-6.4c0-.4-.4-.4-.4-.4h-2.9c-.3 0-.3
             0-.3-.3v-4.3c.1-.3.2-.4.5-.4z" fill="#fff"/>
    <path d="M-.2-.2v48.8c.1 0 .2.1.3.1h48c.1 0 .3 0 .4-.1V-.2H-.2zm39.7 15c-.8
             1.1-1.7 2.1-2.8 2.9-.2.1-.2.3-.2.5 0 .7 0 1.3-.1 2-.3 3.3-1.4
             6.3-3.2 9-2.9 4.3-7 6.8-12.1 7.5-.5.1-1 .1-1.5.2h-2.4c-.1
             0-.2-.1-.3-.1-2.9-.2-5.5-1.1-8-2.6-.1-.1-.2-.1-.2-.2 1.7.1 3.3 0
             4.9-.5 1.6-.4 3-1.2 4.4-2.2-3-.4-5.6-2.3-5.8-4.4h1.3c.4 0 .9-.1
             1.3-.1v-.1c-1.4-.4-2.6-1.1-3.6-2.3-.9-1.2-1.4-2.5-1.4-4 .9.4 1.8.7
             2.8.8-3.4-2.5-3.2-6.5-1.9-8.5 1.6 2 3.6 3.6 5.9 4.7 2.3 1.2 4.7 1.8
             7.2 1.9v-.2c-.7-3.4 1.4-6.7 4.8-7.5 2.9-.7 5 .7 6
             1.7.1.1.2.1.3.1.5-.1 1.1-.2 1.6-.4.8-.3 1.5-.6 2.3-1-.5 1.4-1.4
             2.5-2.6 3.4 1.2-.1 2.4-.4 3.4-.9 0 .2-.1.2-.1.3z" fill="#5aa8df"/>
  </symbol>
  <symbol id="Footer_youtube-01" viewBox="0 0 48.4 48.3">
    <style>.st0{fill:#fff}
    </style>
    <path class="st0" d="M.3 48.4h47.8c.1 0 .3 0 .4-.1V-.2H-.1v48.5c.1 0
                         .2.1.3.1h.1zm17.2-28.3h3c.2 0
                         .2-.1.2-.2V16c0-.8.1-1.6.4-2.3.6-1.7 1.8-2.9
                         3.5-3.5.9-.3 1.8-.5 2.7-.5h2.6c.4 0 .7.1 1.1.1.2 0
                         .2.1.2.2v4.1c0 .2-.1.3-.2.3h-2c-.6 0-1.1
                         0-1.7.1-.8.1-1.3.6-1.3 1.4 0 .7 0 1.4-.1 2v2c0 .3 0
                         .3.2.3h4.7c.3 0 .3 0 .3.3 0 1-.1 2.1-.1 3.1v1.2c0
                         .3-.3.3-.3.3h-4.4s-.4 0-.4.3v12.9c0 .4 0 .5-.5.5H21c-.3
                         0-.4 0-.4-.4v-6.5-6.4c0-.4-.4-.4-.4-.4h-2.9c-.3 0-.3
                         0-.3-.3v-4.3c.1-.3.2-.4.5-.4z"/>
    <path class="st0" d="M-.4 48.6V-.5h49.1v49.1H-.4zm24.5-6.1h9.6c3.1 0 5.3-2.1
                         5.3-5.2v-9.2c0-3-2.1-5.2-5.1-5.2H14.4c-2.9 0-5.1
                         2.2-5.1 5v9.7c0 2.8 2.2 4.9 5 4.9h9.8zM22.4
                         5.7h-1.8c-.4 0-.6.1-.6.5-.1.5-.3 1.1-.5 1.6-.3 1.1-.7
                         2.2-1
                         3.4-.1-.3-.2-.4-.2-.6-.5-1.5-.9-3-1.4-4.4-.1-.2-.2-.5-.4-.5-.7-.1-1.4
                         0-2.1 0 .1.2.1.3.1.4.6 1.6 1.1 3.2 1.7 4.7.7 1.9 1.4
                         3.9 1.2 6-.1 1.2 0 2.3 0 3.5h2.1v-.7-5c0-.3.1-.7.2-1
                         .6-1.7 1.2-3.4 1.8-5.2.2-.7.5-1.7.9-2.7zm4.9
                         9.5c-.1-1.3-.1-2.4-.3-3.5-.2-1.6-1.2-2.6-2.6-2.6-1.5
                         0-2.5.7-2.8 2.4-.4 2.3-.4 4.7 0 7 .3 1.5 1.2 2.3 2.6
          2.3 1.4 0 2.4-.7
                         2.7-2.2.2-1.2.3-2.4.4-3.4zm1.1-5.7v9.4c0
                         .2.1.4.1.6.2.6.6 1.1 1.3 1.2.8.1 1.4-.1
                         1.9-.7.1-.1.2-.2.3-.4 0 .3 0 .6.1.8H34V9.5h-1.9v6.8c0
                         .6 0 1.1-.2 1.7-.1.3-.5.6-.8.5-.2
                         0-.5-.4-.7-.6-.1-.1-.1-.3-.1-.4 0-2.4
                         0-4.8-.1-7.2v-.7c-.6-.1-1.2-.1-1.8-.1z"/>
    <path class="st0" d="M26.5 29.8c.4-.3.6-.5.9-.7.7-.3 1.6-.1 1.8.7.3.8.5
                         1.7.5 2.5.1 1.4 0 2.8-.1 4.2 0 .5-.2 1-.4 1.5-.6
                         1.1-1.8 1.2-2.5.2 0-.1-.1-.1-.2-.2 0
                         .3-.1.4-.1.6h-1.5V26.2h1.6v3.6zm-.1 4.2c.1.8.1 1.6.2
                         2.4 0 .4.3.8.7.7.3-.1.6-.5.6-.7.1-1.6.1-3.1 0-4.7
                         0-.4-.2-.8-.7-.7-.3.1-.6.4-.7.7 0 .7 0 1.5-.1 2.3zM35.9
                         34.3h-2.8c-.4 0-.6.1-.5.5.1.6 0 1.1.1
                         1.7.1.3.4.5.7.8.2-.3.6-.5.7-.8.1-.3.1-.6.2-1h1.5c0 .9 0
                         1.8-.5 2.5-.8 1.2-3.2 1.2-3.8-.2-.4-.7-.5-1.6-.6-2.4
                         0-1.5 0-3.1.2-4.6.2-1.3 1.1-1.9 2.4-1.9 1.2 0 2 .6 2.2
                         1.9.1 1.2.1 2.3.2 3.5zm-3.4-1.6c1.7.2 1.9 0
                         1.6-1.4v-.1c-.2-.2-.4-.5-.6-.5-.2 0-.6.2-.7.4-.2.6-.2
                         1.1-.3 1.6zM21.7 29.3H23c.1 0
                         .3.2.3.3v8.9l-.1.1h-1.4c0-.2-.1-.4-.2-.6-.2.2-.3.3-.4.5-.7.7-1.9.5-2.3-.5-.2-.5-.3-1-.3-1.5V30c0-.6.2-.8.8-.7h.3c.5-.1.6.1.6.6v5.9c0
                         .3 0 .6.1.8.1.2.4.5.6.5.2 0
                         .5-.2.6-.4.1-.3.2-.6.2-.9-.1-2.2-.1-4.3-.1-6.5zM12.8
                         26.2h5.8v2h-1.4c-.5
                         0-.6.1-.6.6v9.8h-1.8v-.7-9c0-.6-.2-.7-.7-.7h-1.3v-2zM25.2
                         14.9v2.2c0 .3 0 .7-.2 1-.2.3-.5.6-.8.6-.3
                         0-.6-.3-.7-.6-.2-.3-.2-.7-.2-1v-4.4c0-.4.1-.8.3-1.1.3-.6
                         1.1-.7 1.4 0 .2.4.3.8.3 1.2-.1.7-.1 1.4-.1 2.1z"/>
  </symbol>
  <symbol id="Footer_youtube_mouseover-01" viewBox="0 0 48.4 48.3">
    <style>.st1{fill:#be1e2d}
    </style>
    <path d="M.3 48.4h47.8c.1 0 .3 0 .4-.1V-.2H-.1v48.5c.1 0
             .2.1.3.1h.1zm17.2-28.3h3c.2 0 .2-.1.2-.2V16c0-.8.1-1.6.4-2.3.6-1.7
             1.8-2.9 3.5-3.5.9-.3 1.8-.5 2.7-.5h2.6c.4 0 .7.1 1.1.1.2 0
             .2.1.2.2v4.1c0 .2-.1.3-.2.3h-2c-.6 0-1.1 0-1.7.1-.8.1-1.3.6-1.3 1.4
             0 .7 0 1.4-.1 2v2c0 .3 0 .3.2.3h4.7c.3 0 .3 0 .3.3 0 1-.1 2.1-.1
             3.1v1.2c0 .3-.3.3-.3.3h-4.4s-.4 0-.4.3v12.9c0 .4 0 .5-.5.5H21c-.3
             0-.4 0-.4-.4v-6.5-6.4c0-.4-.4-.4-.4-.4h-2.9c-.3 0-.3
             0-.3-.3v-4.3c.1-.3.2-.4.5-.4z" fill="#fff"/>
    <path class="st1" d="M-.4 48.6V-.5h49.1v49.1H-.4zm24.5-6.1h9.6c3.1 0 5.3-2.1
             5.3-5.2v-9.2c0-3-2.1-5.2-5.1-5.2H14.4c-2.9 0-5.1 2.2-5.1 5v9.7c0
             2.8 2.2 4.9 5 4.9h9.8zM22.4 5.7h-1.8c-.4 0-.6.1-.6.5-.1.5-.3 1.1-.5
             1.6-.3 1.1-.7 2.2-1
             3.4-.1-.3-.2-.4-.2-.6-.5-1.5-.9-3-1.4-4.4-.1-.2-.2-.5-.4-.5-.7-.1-1.4
             0-2.1 0 .1.2.1.3.1.4.6 1.6 1.1 3.2 1.7 4.7.7 1.9 1.4 3.9 1.2 6-.1
             1.2 0 2.3 0 3.5h2.1v-.7-5c0-.3.1-.7.2-1 .6-1.7 1.2-3.4
             1.8-5.2.2-.7.5-1.7.9-2.7zm4.9
             9.5c-.1-1.3-.1-2.4-.3-3.5-.2-1.6-1.2-2.6-2.6-2.6-1.5 0-2.5.7-2.8
             2.4-.4 2.3-.4 4.7 0 7 .3 1.5 1.2 2.3 2.6 2.3 1.4 0 2.4-.7
             2.7-2.2.2-1.2.3-2.4.4-3.4zm1.1-5.7v9.4c0 .2.1.4.1.6.2.6.6 1.1 1.3
             1.2.8.1 1.4-.1 1.9-.7.1-.1.2-.2.3-.4 0.3 0
             .6.1.8H34V9.5h-1.9v6.8c0 .6 0 1.1-.2 1.7-.1.3-.5.6-.8.5-.2
             0-.5-.4-.7-.6-.1-.1-.1-.3-.1-.4 0-2.4
             0-4.8-.1-7.2v-.7c-.6-.1-1.2-.1-1.8-.1z"/>
    <path class="st1" d="M26.5 29.8c.4-.3.6-.5.9-.7.7-.3 1.6-.1 1.8.7.3.8.5
             1.7.5 2.5.1 1.4 0 2.8-.1 4.2 0 .5-.2 1-.4 1.5-.6 1.1-1.8 1.2-2.5.2
             0-.1-.1-.1-.2-.2 0 .3-.1.4-.1.6h-1.5V26.2h1.6v3.6zm-.1 4.2c.1.8.1
             1.6.2 2.4 0 .4.3.8.7.7.3-.1.6-.5.6-.7.1-1.6.1-3.1 0-4.7
             0-.4-.2-.8-.7-.7-.3.1-.6.4-.7.7 0 .7 0 1.5-.1 2.3zM35.9
             34.3h-2.8c-.4 0-.6.1-.5.5.1.6 0 1.1.1
             1.7.1.3.4.5.7.8.2-.3.6-.5.7-.8.1-.3.1-.6.2-1h1.5c0 .9 0 1.8-.5
             2.5-.8 1.2-3.2 1.2-3.8-.2-.4-.7-.5-1.6-.6-2.4 0-1.5
             0-3.1.2-4.6.2-1.3 1.1-1.9 2.4-1.9 1.2 0 2 .6 2.2 1.9.1 1.2.1 2.3.2
             3.5zm-3.4-1.6c1.7.2 1.9 0 1.6-1.4v-.1c-.2-.2-.4-.5-.6-.5-.2
             0-.6.2-.7.4-.2.6-.2 1.1-.3 1.6zM21.7 29.3H23c.1 0
             .3.2.3.3v8.9l-.1.1h-1.4c0-.2-.1-.4-.2-.6-.2.2-.3.3-.4.5-.7.7-1.9.5-2.3-.5-.2-.5-.3-1-.3-1.5V30c0-.6.2-.8.8-.7h.3c.5-.1.6.1.6.6v5.9c0
             .3 0 .6.1.8.1.2.4.5.6.5.2 0
             .5-.2.6-.4.1-.3.2-.6.2-.9-.1-2.2-.1-4.3-.1-6.5zM12.8
             26.2h5.8v2h-1.4c-.5
             0-.6.1-.6.6v9.8h-1.8v-.7-9c0-.6-.2-.7-.7-.7h-1.3v-2zM25.2
             14.9v2.2c0 .3 0 .7-.2 1-.2.3-.5.6-.8.6-.3
             0-.6-.3-.7-.6-.2-.3-.2-.7-.2-1v-4.4c0-.4.1-.8.3-1.1.3-.6 1.1-.7 1.4
             0 .2.4.3.8.3 1.2-.1.7-.1 1.4-.1 2.1z"/>
  </symbol>
  <symbol id="Magglass" viewBox="0 0 18.8 20.2">
    <style>.st0{fill:none;stroke:#fff;stroke-width:1.8636;stroke-miterlimit:10}
    </style>
    <circle class="st0" cx="8.4" cy="8.4" r="7.5"/>
    <path class="st0" d="M12.3 13.7l5.8 5.8"/>
  </symbol>
</svg>
