<svg aria-hidden="true" style="position: absolute; width: 0; height: 0; overflow: hidden;" version="1.1" xmlns="http://www.w3.org/2000/svg" xmlns:xlink="http://www.w3.org/1999/xlink">
  <defs>
    <symbol id="icon-location" viewBox="0 0 18 32">
      <title>location</title>
      <path d="M13.728 11.424q0-1.888-1.344-3.232t-3.232-1.344-3.232 1.344-1.344 3.232 1.344 3.232 3.232 1.344 3.232-1.344 1.344-3.232zM18.272 11.424q0 1.952-0.576 3.2l-6.496 13.824q-0.288 0.576-0.864 0.928t-1.184 0.352-1.216-0.352-0.832-0.928l-6.528-13.824q-0.576-1.248-0.576-3.2 0-3.776 2.688-6.464t6.464-2.688 6.464 2.688 2.656 6.464z"></path>
    </symbol>
    <symbol id="icon-copy" viewBox="0 0 48.7 48.4">
      <title>republish</title>
      <path d="M0,0c0,16.2,0,32.3,0,48.5c0.1,0,0.2,0.1,0.3,0.1c0,0,0.1,0,0.1,0c15.9,0,31.9,0,47.8,0c0.1,0,0.3,0,0.4-0.1
               c0-16.2,0-32.3,0-48.5C32.4,0,16.2,0,0,0z M17.1,30.5c-1.6,0-3.1,0-4.7,0c-1,0-1.8-1-1.8-2.1c0-0.7,0-1.3,0-2c0-4.7,0-9.3,0-14
               c0-1.6,0.8-2.4,2.4-2.4c4.9,0,9.9,0,14.8,0c1.5,0,2.4,0.8,2.4,2.4c0,1.4,0,2.9,0,4.3c-0.6,0-1.1,0-1.7,0c0-0.1,0-0.3,0-0.4
               c0-1.3,0-2.6,0-3.9c0-0.5-0.1-0.7-0.6-0.7c-5,0-10,0-15,0c-0.5,0-0.6,0.1-0.6,0.7c0,5.3,0,10.6,0,15.8c0,0.6,0.1,0.7,0.7,0.7
               c1.2,0,2.4,0,3.6,0c0.5,0,0.6,0.1,0.6,0.6C17.1,29.8,17.1,30.1,17.1,30.5z M14.7,22.6c-0.2-0.9-0.4-1.8-0.5-2.7
               c-0.1-0.4,0.2-0.7,0.6-0.9c0.4-0.1,0.7,0,1,0.4c0.1,0.1,0.1,0.2,0.2,0.3c0.7,1.3,1.5,2.5,2.6,3.5c1.8,1.8,4,2.7,6.5,2.9
               c0.1,0,0.2,0,0.3,0c0,0,0.1,0,0.2,0c0-0.7,0-1.4,0-2.1c0-0.4,0.1-0.8,0.5-1c0.4-0.2,0.8,0,1.1,0.4c1.5,1.5,2.9,2.9,4.4,4.4
               c0.6,0.6,0.6,1,0,1.5c-1.5,1.5-3,2.9-4.4,4.4c-0.3,0.3-0.6,0.5-1.1,0.3c-0.4-0.2-0.5-0.5-0.5-1c0-0.7,0-1.4,0-2.1
               c-1.2-0.2-2.3-0.3-3.4-0.6C18.1,29.2,15.8,26.5,14.7,22.6z M38,36.3c0,1.4-0.9,2.3-2.3,2.3c-5,0-10,0-15.1,0
               c-1.4,0-2.2-0.9-2.2-2.3c0-1.9,0-3.8,0-5.8c0-0.1,0-0.2,0-0.4c0.5,0.3,1,0.5,1.5,0.8c0.1,0.1,0.2,0.3,0.2,0.4c0,1.6,0,3.2,0,4.8
               c0,0.6,0.1,0.7,0.7,0.7c5,0,9.9,0,14.9,0c0.6,0,0.7-0.1,0.7-0.7c0-5.3,0-10.5,0-15.8c0-0.6-0.1-0.7-0.7-0.7c-5,0-9.9,0-14.9,0
               c-0.6,0-0.7,0.1-0.7,0.7c0,0.8,0,1.6,0,2.6c-0.4-0.4-0.7-0.7-1.1-1c-0.9-0.8-0.7-1.7-0.4-2.6c0.3-0.9,1.1-1.3,2.1-1.3
               c5,0,10,0,15,0c1.4,0,2.3,0.9,2.3,2.3C38,25.7,38,31,38,36.3z"/>
    </symbol>
    <symbol id="icon-phone" viewBox="0 0 25 32">
      <title>phone</title>
      <path d="M25.152 22.144q0 0.48-0.192 1.248t-0.384 1.216q-0.352 0.896-2.176 1.92-1.664 0.896-3.296 0.896-0.48 0-0.96-0.064t-1.024-0.224-0.832-0.256-0.992-0.352-0.896-0.32q-1.728-0.64-3.104-1.504-2.272-1.408-4.736-3.84t-3.84-4.736q-0.864-1.376-1.472-3.104-0.064-0.16-0.32-0.896t-0.384-0.992-0.256-0.832-0.224-1.024-0.064-0.928q0-1.664 0.928-3.328 0.992-1.824 1.888-2.176 0.448-0.192 1.216-0.384t1.248-0.192q0.256 0 0.384 0.064 0.32 0.096 0.96 1.344 0.192 0.352 0.512 0.992t0.64 1.12 0.544 0.96q0.064 0.064 0.32 0.448t0.384 0.64 0.128 0.512q0 0.352-0.512 0.864t-1.12 0.992-1.088 0.96-0.512 0.8q0 0.16 0.096 0.416t0.128 0.352 0.256 0.448 0.224 0.32q1.344 2.464 3.104 4.224t4.192 3.104q0.032 0 0.32 0.192t0.448 0.256 0.352 0.16 0.416 0.064q0.32 0 0.8-0.512t0.96-1.088 0.992-1.12 0.896-0.512q0.224 0 0.48 0.128t0.64 0.384 0.448 0.32q0.448 0.256 0.96 0.544t1.152 0.64 0.96 0.544q1.248 0.608 1.344 0.928 0.064 0.128 0.064 0.384z"></path>
    </symbol>
    <symbol id="icon-mail" viewBox="0 0 48.7 48.4">
      <title>mail</title>
      <path d="M0-0.3c0,16.2,0,32.3,0,48.5c0.1,0,0.2,0.1,0.3,0.1c0,0,0.1,0,0.1,0c15.9,0,31.9,0,47.8,0c0.1,0,0.3,0,0.4-0.1
               c0-16.2,0-32.3,0-48.5C32.4-0.3,16.2-0.3,0-0.3z M11.9,14.3c3.1,0,19.7,0,24.8,0c0.5,0,0.9,0,1.3,0.4c-4.6,3.8-9.1,7.6-13.7,11.4
               c-4.6-3.8-9.1-7.6-13.7-11.4C11,14.4,11.4,14.3,11.9,14.3z M38.6,17.3c0,4.8,0,9.6,0,14.4c0,1.4-0.6,2-2,2c-8.2,0-16.4,0-24.6,0
               c-1.4,0-2-0.6-2-2c0-4.8,0-9.6,0-14.4c0-0.2,0-0.3,0-0.6c4.8,4,9.6,8,14.3,11.9c4.8-4,9.5-7.9,14.3-11.9
               C38.6,17,38.6,17.1,38.6,17.3z"/>
    </symbol>
    <symbol id="icon-print" viewBox="0 0 48.7 48.4">
      <title>print</title>
      <path d="M16.3,37.2c5.4,0,10.7,0,16.1,0c0-3.7,0-7.3,0-11c-5.4,0-10.7,0-16.1,0C16.3,29.9,16.3,33.5,16.3,37.2z
               M29.6,33.6c-0.9,0-1.7,0-2.6,0c-0.9,0-1.7,0-2.6,0c-1.7,0-3.4,0-5.2,0c-0.6,0-1-0.3-1-0.9c0-0.6,0.4-0.9,1-0.9c3.4,0,6.8,0,10.3,0
               c0.7,0,1.1,0.4,1.1,1C30.5,33.2,30.2,33.6,29.6,33.6z M19.2,28c3.4,0,6.8,0,10.2,0c0.8,0,1.2,0.5,1.1,1.1c-0.1,0.4-0.4,0.7-0.9,0.7
               c-1.7,0-3.5,0-5.2,0c-1.7,0-3.4,0-5.1,0c-0.7,0-1-0.3-1-0.9C18.2,28.4,18.6,28,19.2,28z"/>
               <path d="M32.4,11.5c-5.4,0-10.7,0-16.1,0c0,1.8,0,3.6,0,5.5c5.4,0,10.7,0,16.1,0C32.4,15.1,32.4,13.3,32.4,11.5z"/>
               <path d="M0.1,0.1c0,16.2,0,32.3,0,48.5c0.1,0,0.2,0.1,0.3,0.1c0,0,0.1,0,0.1,0c15.9,0,31.9,0,47.8,0
                        c0.1,0,0.3,0,0.4-0.1c0-16.2,0-32.3,0-48.5C32.5,0.1,16.3,0.1,0.1,0.1z M36.3,32.6c-0.7,0-1.4,0-2.1,0c0,1,0,2,0,3
                        c0,0.8,0,1.6,0,2.4c0,0.7-0.3,1-1,1c-5.9,0-11.8,0-17.7,0c-0.7,0-1-0.3-1-1c0-1.6,0-3.1,0-4.7c0-0.2,0-0.5,0-0.7
                        c-0.7,0-1.3,0-1.9,0c-1.7,0-2.9-1.2-2.9-2.9c0-3.2,0-6.4,0-9.7c0-1.9,1.1-3.1,3.1-3.1c0.6,0,1.1,0,1.8,0c0-0.8,0-1.6,0-2.4
                        c0-1.3,0-2.6,0-4c0-0.7,0.3-1,1-1c5.9,0,11.8,0,17.7,0c0.7,0,1,0.3,1,1.1c0,1.9,0,3.9,0,5.8c0,0.2,0,0.3,0,0.5c0.7,0,1.4,0,2,0
                        c1.6,0,2.8,1.2,2.8,2.7c0,3.4,0,6.8,0,10.2C39.1,31.4,37.8,32.6,36.3,32.6z"/>
                        <path d="M35.2,19.7c-0.5,0-1,0.5-1,1c0,0.5,0.5,1,1,1c0.6,0,1.1-0.5,1.1-1.1C36.3,20.2,35.8,19.7,35.2,19.7z"/>
    </symbol>
    <symbol id="icon-search" viewBox="0 0 30 32">
      <title>search</title>
      <path d="M20.576 14.848q0-3.296-2.336-5.632t-5.664-2.368-5.664 2.368-2.336 5.632 2.336 5.664 5.664 2.336 5.664-2.336 2.336-5.664zM29.728 29.728q0 0.928-0.704 1.6t-1.6 0.672q-0.96 0-1.6-0.672l-6.112-6.112q-3.2 2.208-7.136 2.208-2.56 0-4.896-0.992t-4-2.688-2.688-4-0.992-4.896 0.992-4.864 2.688-4.032 4-2.688 4.896-0.992 4.896 0.992 4 2.688 2.688 4.032 0.992 4.864q0 3.936-2.208 7.136l6.112 6.112q0.672 0.672 0.672 1.632z"></path>
    </symbol>
    <symbol id="icon-twitter" viewBox="0 0 48.7 48.4">
      <title>twitter</title>
      <path d="M-0.1,0.1c0,16.2,0,32.3,0,48.5c0.1,0,0.2,0.1,0.3,0.1c0,0,0.1,0,0.1,0c15.9,0,31.9,0,47.8,0
               c0.1,0,0.3,0,0.4-0.1c0-16.2,0-32.3,0-48.5C32.4,0.1,16.2,0.1-0.1,0.1z M39.5,15c-0.8,1.1-1.7,2.1-2.8,2.9
               c-0.2,0.1-0.2,0.3-0.2,0.5c0,0.7,0,1.3-0.1,2c-0.3,3.3-1.4,6.2-3.2,8.9c-2.9,4.2-7,6.7-12.1,7.5c-0.5,0.1-1,0.1-1.5,0.2
               c-0.8,0-1.6,0-2.4,0c-0.1,0-0.2-0.1-0.3-0.1c-2.8-0.2-5.5-1.1-7.9-2.6c-0.1-0.1-0.2-0.1-0.2-0.2c1.7,0.1,3.3,0,4.9-0.5
               c1.6-0.4,3-1.2,4.4-2.2c-3-0.4-5.5-2.3-5.8-4.3c0.4,0,0.9,0,1.3,0c0.4,0,0.9-0.1,1.3-0.1c0,0,0-0.1,0-0.1c-1.4-0.4-2.6-1.1-3.5-2.3
               c-0.9-1.2-1.4-2.5-1.4-4c0.9,0.4,1.8,0.7,2.8,0.8c-3.4-2.5-3.2-6.5-1.9-8.4c1.6,2,3.6,3.5,5.8,4.7c2.3,1.1,4.7,1.8,7.2,1.9
               c0-0.1,0-0.1,0-0.2c-0.7-3.4,1.4-6.6,4.8-7.4c2.9-0.7,5,0.7,6,1.7c0.1,0.1,0.2,0.1,0.3,0.1c0.5-0.1,1.1-0.2,1.6-0.4
               c0.8-0.3,1.5-0.6,2.2-1c-0.5,1.4-1.4,2.5-2.6,3.4c1.2-0.1,2.3-0.4,3.4-0.9C39.6,14.9,39.6,15,39.5,15z"/>
    </symbol>
    <symbol id="icon-facebook" viewBox="0 0 48.7 48.4">
      <title>facebook</title>
      <path d="M0.5,48.5c15.9,0,31.9,0,47.8,0c0.1,0,0.3,0,0.4-0.1c0-16.2,0-32.3,0-48.5c-16.2,0-32.4,0-48.6,0
               c0,16.2,0,32.3,0,48.5c0.1,0,0.2,0.1,0.3,0.1C0.4,48.5,0.5,48.5,0.5,48.5z M17.6,20.2c1,0,2,0,3,0c0.2,0,0.2-0.1,0.2-0.2
               c0-1.3,0-2.6,0-3.9c0-0.8,0.1-1.6,0.4-2.3c0.6-1.7,1.8-2.9,3.5-3.5c0.9-0.3,1.8-0.5,2.7-0.5c0.9,0,1.7,0,2.6,0
               c0.4,0,0.7,0.1,1.1,0.1c0.2,0,0.2,0.1,0.2,0.2c0,0.7,0,1.4,0,2.1c0,0.5,0,1,0,1.4c0,0.2,0,0.4,0,0.6c0,0.2-0.1,0.3-0.2,0.3
               c-0.7,0-1.3,0-2,0c-0.6,0-1.1,0-1.7,0.1c-0.8,0.1-1.3,0.6-1.3,1.4c0,0.7,0,1.4-0.1,2c0,0.7,0,1.3,0,2c0,0.3,0,0.3,0.2,0.3
               c1.6,0,3.2,0,4.7,0c0.3,0,0.3,0,0.3,0.3c0,1-0.1,2.1-0.1,3.1c0,0.4,0,0.8,0,1.2c0,0.3-0.3,0.3-0.3,0.3l-4.4,0c0,0-0.4,0-0.4,0.3
               c0,4.3,0,8.6,0,12.9c0,0.4,0,0.5-0.5,0.5c-1.5,0-2.9,0-4.4,0c-0.3,0-0.4,0-0.4-0.4c0-2.2,0-4.3,0-6.5c0,0,0,0,0,0
               c0-2.1,0-4.3,0-6.4c0-0.4-0.4-0.4-0.4-0.4s-1.9,0-2.9,0c-0.3,0-0.3,0-0.3-0.3c0-1.4,0-2.8,0-4.3C17.3,20.2,17.3,20.2,17.6,20.2z"/>
    </symbol>
    <symbol id="icon-rss" viewBox="0 0 25 32">
      <title>rss</title>
      <path d="M6.848 24q0 1.44-0.992 2.432t-2.432 0.992-2.432-0.992-0.992-2.432 0.992-2.432 2.432-0.992 2.432 0.992 0.992 2.432zM16 26.208q0.032 0.48-0.288 0.832-0.32 0.384-0.864 0.384h-2.4q-0.448 0-0.768-0.288t-0.352-0.736q-0.384-4.096-3.296-7.008t-7.008-3.296q-0.448-0.032-0.736-0.352t-0.288-0.768v-2.4q0-0.512 0.384-0.832 0.288-0.32 0.768-0.32h0.096q2.848 0.224 5.44 1.44t4.64 3.232q2.016 2.016 3.232 4.64t1.44 5.472zM25.152 26.24q0.032 0.48-0.32 0.832-0.32 0.352-0.832 0.352h-2.56q-0.448 0-0.8-0.32t-0.32-0.736q-0.224-3.84-1.824-7.296t-4.128-6.016-6.016-4.128-7.264-1.824q-0.448-0.032-0.768-0.352t-0.32-0.768v-2.56q0-0.512 0.352-0.832 0.32-0.32 0.8-0.32h0.032q4.704 0.256 8.96 2.144t7.616 5.248q3.328 3.328 5.248 7.616t2.144 8.96z"></path>
    </symbol>
    <symbol id="icon-youtube" viewBox="0 0 27 32">
      <title>youtube</title>
      <path d="M17.344 22.208v3.776q0 1.184-0.704 1.184-0.416 0-0.8-0.384v-5.376q0.384-0.384 0.8-0.384 0.704 0 0.704 1.184zM23.392 22.24v0.8h-1.632v-0.8q0-1.216 0.8-1.216t0.832 1.216zM6.112 18.336h1.92v-1.664h-5.568v1.664h1.888v10.176h1.76v-10.176zM11.264 28.512h1.6v-8.832h-1.6v6.752q-0.544 0.736-1.024 0.736-0.32 0-0.352-0.352-0.032-0.064-0.032-0.64v-6.496h-1.6v6.976q0 0.896 0.16 1.312 0.224 0.672 1.024 0.672 0.864 0 1.824-1.088v0.96zM18.944 25.856v-3.52q0-1.312-0.16-1.76-0.32-0.992-1.28-0.992-0.896 0-1.664 0.96v-3.872h-1.6v11.84h1.6v-0.864q0.8 0.992 1.664 0.992 0.96 0 1.28-0.992 0.16-0.48 0.16-1.792zM24.96 25.664v-0.224h-1.632q0 0.928-0.032 1.088-0.128 0.64-0.704 0.64-0.832 0-0.832-1.216v-1.568h3.2v-1.824q0-1.408-0.48-2.080-0.704-0.896-1.888-0.896-1.216 0-1.92 0.896-0.48 0.672-0.48 2.080v3.072q0 1.408 0.512 2.080 0.704 0.928 1.92 0.928 1.28 0 1.92-0.96 0.32-0.48 0.384-0.96 0.032-0.16 0.032-1.056zM14.112 9.376v-3.744q0-1.248-0.768-1.248t-0.768 1.248v3.744q0 1.248 0.768 1.248t0.768-1.248zM26.944 22.784q0 4.192-0.448 6.24-0.256 1.056-1.056 1.792t-1.824 0.8q-3.264 0.384-9.888 0.384t-9.92-0.384q-1.024-0.096-1.824-0.8t-1.024-1.792q-0.48-1.984-0.48-6.24 0-4.192 0.48-6.24 0.224-1.056 1.024-1.792t1.824-0.832q3.296-0.352 9.92-0.352t9.888 0.352q1.056 0.128 1.856 0.832t1.024 1.792q0.448 1.984 0.448 6.24zM9.12 0h1.824l-2.144 7.136v4.832h-1.792v-4.832q-0.256-1.344-1.088-3.808-0.672-1.824-1.184-3.328h1.92l1.248 4.704zM15.744 5.952v3.104q0 1.472-0.512 2.112-0.672 0.928-1.888 0.928-1.184 0-1.888-0.928-0.48-0.672-0.48-2.112v-3.104q0-1.44 0.48-2.112 0.704-0.896 1.888-0.896 1.216 0 1.888 0.896 0.512 0.672 0.512 2.112zM21.728 3.040v8.928h-1.632v-0.992q-0.96 1.12-1.856 1.12-0.8 0-1.056-0.672-0.128-0.416-0.128-1.344v-7.040h1.632v6.56q0 0.608 0 0.64 0.064 0.384 0.384 0.384 0.48 0 1.024-0.768v-6.816h1.632z"></path>
    </symbol>
    <symbol id="icon-copyright" viewBox="0 0 27 32">
      <title>copyright</title>
      <path d="M20.544 19.168v1.952q0 0.896-0.672 1.6t-1.664 1.088-2.112 0.576-2.080 0.192q-3.68 0-6.144-2.496t-2.432-6.176q0-3.616 2.432-6.048t6.048-2.432q0.608 0 1.344 0.096t1.664 0.32 1.632 0.608 1.248 0.992 0.512 1.44v1.952q0 0.288-0.288 0.288h-2.112q-0.288 0-0.288-0.288v-1.248q0-0.768-1.184-1.216t-2.432-0.416q-2.528 0-4.096 1.632t-1.568 4.224q0 2.72 1.632 4.48t4.16 1.76q1.216 0 2.464-0.448t1.248-1.184v-1.248q0-0.128 0.096-0.192t0.16-0.096h2.144q0.096 0 0.192 0.096t0.096 0.192zM13.728 4.576q-2.336 0-4.448 0.896t-3.648 2.432-2.432 3.648-0.928 4.448 0.928 4.448 2.432 3.616 3.648 2.464 4.448 0.896 4.416-0.896 3.648-2.464 2.432-3.616 0.928-4.448-0.928-4.448-2.432-3.648-3.648-2.432-4.416-0.896zM27.424 16q0 3.744-1.824 6.88t-4.992 4.992-6.88 1.856-6.912-1.856-4.96-4.992-1.856-6.88 1.856-6.88 4.96-4.992 6.912-1.856 6.88 1.856 4.992 4.992 1.824 6.88z"></path>
    </symbol>
    <symbol id="icon-creative-commons" viewBox="0 0 32 32">
      <title>creative-commons</title>
      <path d="M10.816 22.016q2.72 0 4.576-1.856 0.256-0.32 0.064-0.64l-0.8-1.472q-0.128-0.224-0.448-0.288-0.288-0.032-0.48 0.192l-0.064 0.032q-0.064 0.096-0.192 0.192t-0.32 0.256-0.416 0.256-0.512 0.224-0.608 0.16-0.672 0.064q-1.344 0-2.24-0.896t-0.864-2.272q0-1.344 0.864-2.24t2.176-0.864q0.672 0 1.28 0.256t0.896 0.48l0.288 0.256q0.192 0.192 0.448 0.192 0.288-0.064 0.448-0.256l0.928-1.408q0.256-0.352-0.032-0.704-0.032-0.064-0.192-0.192t-0.544-0.416-0.864-0.512-1.184-0.416-1.536-0.16q-2.656 0-4.416 1.728t-1.728 4.288q0 2.592 1.728 4.32t4.416 1.696zM22.048 22.016q2.752 0 4.608-1.856 0.224-0.32 0.064-0.64l-0.8-1.472q-0.16-0.256-0.448-0.288t-0.48 0.192l-0.064 0.032q-0.096 0.096-0.224 0.192t-0.32 0.256-0.416 0.256-0.512 0.224-0.576 0.16-0.672 0.064q-1.376 0-2.24-0.896t-0.864-2.272q0-1.344 0.832-2.24t2.176-0.864q0.672 0 1.28 0.256t0.928 0.48l0.256 0.256q0.224 0.192 0.48 0.192 0.288-0.064 0.416-0.256l0.96-1.408q0.224-0.352-0.032-0.704-0.064-0.064-0.192-0.192t-0.544-0.416-0.864-0.512-1.216-0.416-1.536-0.16q-2.624 0-4.384 1.728t-1.76 4.288q0 2.592 1.728 4.32t4.416 1.696zM16 2.848q-2.688 0-5.12 1.056t-4.16 2.784-2.816 4.192-1.056 5.12 1.056 5.12 2.816 4.16 4.16 2.816 5.12 1.056 5.12-1.056 4.192-2.816 2.784-4.16 1.056-5.12-1.056-5.12-2.784-4.192-4.192-2.784-5.12-1.056zM16 0q3.264 0 6.208 1.28t5.12 3.392 3.392 5.12 1.28 6.208-1.28 6.208-3.392 5.12-5.12 3.392-6.208 1.28-6.208-1.28-5.12-3.392-3.392-5.12-1.28-6.208 1.28-6.208 3.392-5.12 5.12-3.392 6.208-1.28z"></path>
    </symbol>
    <symbol id="icon-menu" viewBox="0 0 28 28">
      <title>menu</title>
      <path d="M4,10h24c1.104,0,2-0.896,2-2s-0.896-2-2-2H4C2.896,6,2,6.896,2,8S2.896,10,4,10z M28,14H4c-1.104,0-2,0.896-2,2  s0.896,2,2,2h24c1.104,0,2-0.896,2-2S29.104,14,28,14z M28,22H4c-1.104,0-2,0.896-2,2s0.896,2,2,2h24c1.104,0,2-0.896,2-2  S29.104,22,28,22z"/>
    </symbol>
    <symbol id="icon-cross" viewBox="0 0 32 32">
      <title>cross</title>
      <path d="M31.708 25.708c-0-0-0-0-0-0l-9.708-9.708 9.708-9.708c0-0 0-0 0-0 0.105-0.105 0.18-0.227 0.229-0.357 0.133-0.356 0.057-0.771-0.229-1.057l-4.586-4.586c-0.286-0.286-0.702-0.361-1.057-0.229-0.13 0.048-0.252 0.124-0.357 0.228 0 0-0 0-0 0l-9.708 9.708-9.708-9.708c-0-0-0-0-0-0-0.105-0.104-0.227-0.18-0.357-0.228-0.356-0.133-0.771-0.057-1.057 0.229l-4.586 4.586c-0.286 0.286-0.361 0.702-0.229 1.057 0.049 0.13 0.124 0.252 0.229 0.357 0 0 0 0 0 0l9.708 9.708-9.708 9.708c-0 0-0 0-0 0-0.104 0.105-0.18 0.227-0.229 0.357-0.133 0.355-0.057 0.771 0.229 1.057l4.586 4.586c0.286 0.286 0.702 0.361 1.057 0.229 0.13-0.049 0.252-0.124 0.357-0.229 0-0 0-0 0-0l9.708-9.708 9.708 9.708c0 0 0 0 0 0 0.105 0.105 0.227 0.18 0.357 0.229 0.356 0.133 0.771 0.057 1.057-0.229l4.586-4.586c0.286-0.286 0.362-0.702 0.229-1.057-0.049-0.13-0.124-0.252-0.229-0.357z"></path>
    </symbol>
    <symbol id="icon-whatsapp" viewBox="0 0 48.7 48.4">
      <title>whatsapp</title>
      <path d="M0-0.1c0,16.2,0,32.3,0,48.5c0.1,0,0.2,0.1,0.3,0.1h0.1c15.9,0,31.9,0,47.8,0c0.1,0,0.3,0,0.4-0.1
               c0-16.2,0-32.3,0-48.5C32.5-0.1,16.2-0.1,0-0.1z M8,40.3c0.9-2.6,1.7-5.1,2.6-7.6c0.2-0.6,0.2-1-0.1-1.6C5.9,22.6,10,12.1,19,8.8
               c9-3.3,18.8,2.2,20.8,11.5c1.7,7.8-2.7,15.8-10.3,18.3c-4.2,1.4-8.3,1.1-12.3-0.8c-0.3-0.1-0.7-0.2-1-0.1
               C13.6,38.5,10.9,39.4,8,40.3z M12,36.4c1.6-0.5,3.1-1,4.6-1.5c0.4-0.1,0.7-0.1,1,0.1c3.3,2,6.8,2.5,10.4,1.4
               c5.5-1.7,8.7-5.4,9.5-11.1c0.6-3.8-0.5-7.2-2.9-10.1c-3.2-3.8-7.3-5.4-12.2-4.7c-3.7,0.5-6.8,2.4-8.9,5.4
               c-3.3,4.7-3.3,10.3-0.2,15.1c0.1,0.2,0.2,0.5,0.1,0.7C13.1,33.3,12.6,34.8,12,36.4z M19.6,16.4c0.7-0.2,1.1,0.3,1.3,0.9
               c0.3,0.9,0.7,1.8,1.1,2.6c0.2,0.5,0,0.8-0.2,1.2c-0.1,0.2-0.3,0.4-0.4,0.5c-0.7,0.7-0.8,0.7,0,1.8c1.2,1.7,2.7,2.9,4.5,3.8
               c0.6,0.3,1,0.2,1.4-0.3c0.3-0.4,0.6-0.7,0.9-1.1c0.3-0.4,0.5-0.5,1-0.3c1,0.5,2,1,3.1,1.5c0.2,0.1,0.3,0.3,0.3,0.5
               c-0.1,0.7-0.2,1.4-0.6,1.9c-1.1,1.3-2.5,1.8-4.2,1.4c-3.9-0.9-6.8-3.1-9-6.4c-0.7-1-1.4-2-1.6-3.2c-0.4-1.6,0-3.1,1.2-4.3
               C18.5,16.7,19.1,16.6,19.6,16.4C19.5,16.5,19.6,16.4,19.6,16.4z"/>
    </symbol>
    <symbol id="icon-share" viewBox="0 0 32 32">
      <title>share</title>
      <path d="M27 22c-1.411 0-2.685 0.586-3.594 1.526l-13.469-6.734c0.041-0.258 0.063-0.522 0.063-0.791s-0.022-0.534-0.063-0.791l13.469-6.734c0.909 0.94 2.183 1.526 3.594 1.526 2.761 0 5-2.239 5-5s-2.239-5-5-5-5 2.239-5 5c0 0.269 0.022 0.534 0.063 0.791l-13.469 6.734c-0.909-0.94-2.183-1.526-3.594-1.526-2.761 0-5 2.239-5 5s2.239 5 5 5c1.411 0 2.685-0.586 3.594-1.526l13.469 6.734c-0.041 0.258-0.063 0.522-0.063 0.791 0 2.761 2.239 5 5 5s5-2.239 5-5c0-2.761-2.239-5-5-5z"></path>
    </symbol>
    <symbol id="icon-home" viewBox="0 0 32 32">
      <title>home</title>
      <path d="M32 18.451l-16-12.42-16 12.42v-5.064l16-12.42 16 12.42zM28 18v12h-8v-8h-8v8h-8v-12l12-9z"></path>
    </symbol>
    <symbol id="icon-creative-commons" viewBox="0 0 28 28">
      <title>creative-commons</title>
      <path d="M9.453 19.266c2.562 0 3.953-1.563 4.016-1.625 0.125-0.156 0.156-0.391 0.047-0.562l-0.703-1.281c-0.063-0.141-0.219-0.234-0.375-0.266-0.156-0.016-0.313 0.047-0.422 0.172-0.016 0-1 1.047-2.438 1.047-1.578 0-2.719-1.156-2.719-2.766 0-1.594 1.109-2.734 2.656-2.734 1.297 0 2.156 0.875 2.156 0.875 0.109 0.109 0.25 0.172 0.406 0.156s0.297-0.094 0.375-0.219l0.828-1.219c0.125-0.187 0.109-0.438-0.031-0.609-0.047-0.063-1.313-1.5-3.797-1.5-3.078 0-5.375 2.266-5.375 5.266 0 3.047 2.25 5.266 5.375 5.266zM19.297 19.266c2.578 0 3.953-1.563 4.016-1.625 0.125-0.156 0.156-0.391 0.063-0.562l-0.703-1.281c-0.078-0.141-0.219-0.234-0.391-0.266-0.156-0.016-0.313 0.047-0.422 0.172-0.016 0-1 1.047-2.438 1.047-1.578 0-2.719-1.156-2.719-2.766 0-1.594 1.109-2.734 2.656-2.734 1.313 0 2.156 0.875 2.156 0.875 0.109 0.109 0.25 0.172 0.406 0.156s0.297-0.094 0.375-0.219l0.828-1.219c0.125-0.187 0.109-0.438-0.031-0.609-0.047-0.063-1.313-1.5-3.797-1.5-3.063 0-5.375 2.266-5.375 5.266 0 3.047 2.25 5.266 5.375 5.266zM14 2.5c-6.344 0-11.5 5.156-11.5 11.5s5.156 11.5 11.5 11.5 11.5-5.156 11.5-11.5-5.156-11.5-11.5-11.5zM14 0c7.734 0 14 6.266 14 14s-6.266 14-14 14-14-6.266-14-14 6.266-14 14-14z"></path>
    </symbol>
  </defs>
</svg>
