<svg aria-hidden="true" style="position: absolute; width: 0; height: 0; overflow: hidden;" version="1.1" xmlns="http://www.w3.org/2000/svg" xmlns:xlink="http://www.w3.org/1999/xlink">
<defs>
<symbol id="icon-location" viewBox="0 0 18 32">
    <title>location</title>
    <path d="M13.728 11.424q0-1.888-1.344-3.232t-3.232-1.344-3.232 1.344-1.344 3.232 1.344 3.232 3.232 1.344 3.232-1.344 1.344-3.232zM18.272 11.424q0 1.952-0.576 3.2l-6.496 13.824q-0.288 0.576-0.864 0.928t-1.184 0.352-1.216-0.352-0.832-0.928l-6.528-13.824q-0.576-1.248-0.576-3.2 0-3.776 2.688-6.464t6.464-2.688 6.464 2.688 2.656 6.464z"></path>
</symbol>
<symbol id="icon-copy" viewBox="0 0 32 32">
    <title>republish</title>
    <path d="M20 8v-8h-14l-6 6v18h12v8h20v-24h-12zM6 2.828v3.172h-3.172l3.172-3.172zM2 22v-14h6v-6h10v6l-6 6v8h-10zM18 10.828v3.172h-3.172l3.172-3.172zM30 30h-16v-14h6v-6h10v20z"></path>
</symbol>
<symbol id="icon-phone" viewBox="0 0 25 32">
<title>phone</title>
<path d="M25.152 22.144q0 0.48-0.192 1.248t-0.384 1.216q-0.352 0.896-2.176 1.92-1.664 0.896-3.296 0.896-0.48 0-0.96-0.064t-1.024-0.224-0.832-0.256-0.992-0.352-0.896-0.32q-1.728-0.64-3.104-1.504-2.272-1.408-4.736-3.84t-3.84-4.736q-0.864-1.376-1.472-3.104-0.064-0.16-0.32-0.896t-0.384-0.992-0.256-0.832-0.224-1.024-0.064-0.928q0-1.664 0.928-3.328 0.992-1.824 1.888-2.176 0.448-0.192 1.216-0.384t1.248-0.192q0.256 0 0.384 0.064 0.32 0.096 0.96 1.344 0.192 0.352 0.512 0.992t0.64 1.12 0.544 0.96q0.064 0.064 0.32 0.448t0.384 0.64 0.128 0.512q0 0.352-0.512 0.864t-1.12 0.992-1.088 0.96-0.512 0.8q0 0.16 0.096 0.416t0.128 0.352 0.256 0.448 0.224 0.32q1.344 2.464 3.104 4.224t4.192 3.104q0.032 0 0.32 0.192t0.448 0.256 0.352 0.16 0.416 0.064q0.32 0 0.8-0.512t0.96-1.088 0.992-1.12 0.896-0.512q0.224 0 0.48 0.128t0.64 0.384 0.448 0.32q0.448 0.256 0.96 0.544t1.152 0.64 0.96 0.544q1.248 0.608 1.344 0.928 0.064 0.128 0.064 0.384z"></path>
</symbol>
<symbol id="icon-mail" viewBox="0 0 32 32">
<title>mail</title>
<path d="M29.728 26.848v-13.696q-0.576 0.64-1.248 1.152-4.768 3.68-7.616 6.048-0.896 0.768-1.472 1.184t-1.536 0.896-1.824 0.416h-0.064q-0.832 0-1.824-0.416t-1.536-0.896-1.472-1.184q-2.816-2.368-7.616-6.048-0.672-0.512-1.248-1.152v13.696q0 0.224 0.192 0.416t0.384 0.16h26.304q0.224 0 0.384-0.16t0.192-0.416zM29.728 8.096v-0.448t-0.032-0.224-0.032-0.224-0.096-0.16-0.16-0.128-0.256-0.064h-26.304q-0.224 0-0.384 0.192t-0.192 0.384q0 3.008 2.656 5.088 3.424 2.688 7.136 5.632 0.128 0.096 0.64 0.544t0.8 0.672 0.8 0.544 0.896 0.512 0.768 0.16h0.064q0.352 0 0.768-0.16t0.896-0.512 0.8-0.544 0.8-0.672 0.64-0.544q3.712-2.944 7.168-5.632 0.96-0.768 1.792-2.080t0.832-2.336zM32 7.424v19.424q0 1.184-0.832 2.016t-2.016 0.864h-26.304q-1.152 0-2.016-0.864t-0.832-2.016v-19.424q0-1.184 0.832-2.016t2.016-0.832h26.304q1.184 0 2.016 0.832t0.832 2.016z"></path>
</symbol>
<symbol id="icon-print" viewBox="0 0 30 32">
<title>print</title>
<path d="M6.848 27.424h16v-4.576h-16v4.576zM6.848 16h16v-6.848h-2.848q-0.704 0-1.216-0.512t-0.512-1.216v-2.848h-11.424v11.424zM27.424 17.152q0-0.48-0.32-0.8t-0.832-0.352-0.8 0.352-0.32 0.8 0.32 0.8 0.8 0.32 0.832-0.32 0.32-0.8zM29.728 17.152v7.424q0 0.224-0.192 0.384t-0.384 0.192h-4v2.848q0 0.704-0.512 1.216t-1.216 0.512h-17.152q-0.704 0-1.184-0.512t-0.512-1.216v-2.848h-4q-0.224 0-0.416-0.192t-0.16-0.384v-7.424q0-1.408 1.024-2.432t2.4-0.992h1.152v-9.728q0-0.704 0.512-1.216t1.184-0.512h12q0.736 0 1.6 0.384t1.344 0.832l2.72 2.72q0.48 0.512 0.864 1.376t0.352 1.568v4.576h1.12q1.44 0 2.432 0.992t1.024 2.432z"></path>
</symbol>
<symbol id="icon-search" viewBox="0 0 30 32">
<title>search</title>
<path d="M20.576 14.848q0-3.296-2.336-5.632t-5.664-2.368-5.664 2.368-2.336 5.632 2.336 5.664 5.664 2.336 5.664-2.336 2.336-5.664zM29.728 29.728q0 0.928-0.704 1.6t-1.6 0.672q-0.96 0-1.6-0.672l-6.112-6.112q-3.2 2.208-7.136 2.208-2.56 0-4.896-0.992t-4-2.688-2.688-4-0.992-4.896 0.992-4.864 2.688-4.032 4-2.688 4.896-0.992 4.896 0.992 4 2.688 2.688 4.032 0.992 4.864q0 3.936-2.208 7.136l6.112 6.112q0.672 0.672 0.672 1.632z"></path>
</symbol>
<symbol id="icon-twitter" viewBox="0 0 30 32">
<title>twitter</title>
<path d="M28.928 7.296q-1.184 1.728-2.88 2.976 0 0.256 0 0.736 0 2.336-0.672 4.64t-2.048 4.448-3.296 3.744-4.608 2.624-5.792 0.96q-4.832 0-8.832-2.592 0.608 0.064 1.376 0.064 4.032 0 7.168-2.464-1.888-0.032-3.36-1.152t-2.048-2.848q0.608 0.096 1.088 0.096 0.768 0 1.536-0.192-2.016-0.416-3.328-1.984t-1.312-3.68v-0.064q1.216 0.672 2.624 0.736-1.184-0.8-1.888-2.048t-0.704-2.752q0-1.568 0.8-2.912 2.176 2.656 5.248 4.256t6.656 1.76q-0.16-0.672-0.16-1.312 0-2.4 1.696-4.064t4.064-1.696q2.528 0 4.224 1.824 1.952-0.384 3.68-1.408-0.672 2.048-2.56 3.2 1.664-0.192 3.328-0.896z"></path>
</symbol>
<symbol id="icon-facebook" viewBox="0 0 18 32">
<title>facebook</title>
<path d="M17.12 0.224v4.704h-2.784q-1.536 0-2.080 0.64t-0.544 1.92v3.392h5.248l-0.704 5.28h-4.544v13.568h-5.472v-13.568h-4.544v-5.28h4.544v-3.904q0-3.328 1.856-5.152t4.96-1.824q2.624 0 4.064 0.224z"></path>
</symbol>
<symbol id="icon-rss" viewBox="0 0 25 32">
<title>rss</title>
<path d="M6.848 24q0 1.44-0.992 2.432t-2.432 0.992-2.432-0.992-0.992-2.432 0.992-2.432 2.432-0.992 2.432 0.992 0.992 2.432zM16 26.208q0.032 0.48-0.288 0.832-0.32 0.384-0.864 0.384h-2.4q-0.448 0-0.768-0.288t-0.352-0.736q-0.384-4.096-3.296-7.008t-7.008-3.296q-0.448-0.032-0.736-0.352t-0.288-0.768v-2.4q0-0.512 0.384-0.832 0.288-0.32 0.768-0.32h0.096q2.848 0.224 5.44 1.44t4.64 3.232q2.016 2.016 3.232 4.64t1.44 5.472zM25.152 26.24q0.032 0.48-0.32 0.832-0.32 0.352-0.832 0.352h-2.56q-0.448 0-0.8-0.32t-0.32-0.736q-0.224-3.84-1.824-7.296t-4.128-6.016-6.016-4.128-7.264-1.824q-0.448-0.032-0.768-0.352t-0.32-0.768v-2.56q0-0.512 0.352-0.832 0.32-0.32 0.8-0.32h0.032q4.704 0.256 8.96 2.144t7.616 5.248q3.328 3.328 5.248 7.616t2.144 8.96z"></path>
</symbol>
<symbol id="icon-youtube" viewBox="0 0 27 32">
<title>youtube</title>
<path d="M17.344 22.208v3.776q0 1.184-0.704 1.184-0.416 0-0.8-0.384v-5.376q0.384-0.384 0.8-0.384 0.704 0 0.704 1.184zM23.392 22.24v0.8h-1.632v-0.8q0-1.216 0.8-1.216t0.832 1.216zM6.112 18.336h1.92v-1.664h-5.568v1.664h1.888v10.176h1.76v-10.176zM11.264 28.512h1.6v-8.832h-1.6v6.752q-0.544 0.736-1.024 0.736-0.32 0-0.352-0.352-0.032-0.064-0.032-0.64v-6.496h-1.6v6.976q0 0.896 0.16 1.312 0.224 0.672 1.024 0.672 0.864 0 1.824-1.088v0.96zM18.944 25.856v-3.52q0-1.312-0.16-1.76-0.32-0.992-1.28-0.992-0.896 0-1.664 0.96v-3.872h-1.6v11.84h1.6v-0.864q0.8 0.992 1.664 0.992 0.96 0 1.28-0.992 0.16-0.48 0.16-1.792zM24.96 25.664v-0.224h-1.632q0 0.928-0.032 1.088-0.128 0.64-0.704 0.64-0.832 0-0.832-1.216v-1.568h3.2v-1.824q0-1.408-0.48-2.080-0.704-0.896-1.888-0.896-1.216 0-1.92 0.896-0.48 0.672-0.48 2.080v3.072q0 1.408 0.512 2.080 0.704 0.928 1.92 0.928 1.28 0 1.92-0.96 0.32-0.48 0.384-0.96 0.032-0.16 0.032-1.056zM14.112 9.376v-3.744q0-1.248-0.768-1.248t-0.768 1.248v3.744q0 1.248 0.768 1.248t0.768-1.248zM26.944 22.784q0 4.192-0.448 6.24-0.256 1.056-1.056 1.792t-1.824 0.8q-3.264 0.384-9.888 0.384t-9.92-0.384q-1.024-0.096-1.824-0.8t-1.024-1.792q-0.48-1.984-0.48-6.24 0-4.192 0.48-6.24 0.224-1.056 1.024-1.792t1.824-0.832q3.296-0.352 9.92-0.352t9.888 0.352q1.056 0.128 1.856 0.832t1.024 1.792q0.448 1.984 0.448 6.24zM9.12 0h1.824l-2.144 7.136v4.832h-1.792v-4.832q-0.256-1.344-1.088-3.808-0.672-1.824-1.184-3.328h1.92l1.248 4.704zM15.744 5.952v3.104q0 1.472-0.512 2.112-0.672 0.928-1.888 0.928-1.184 0-1.888-0.928-0.48-0.672-0.48-2.112v-3.104q0-1.44 0.48-2.112 0.704-0.896 1.888-0.896 1.216 0 1.888 0.896 0.512 0.672 0.512 2.112zM21.728 3.040v8.928h-1.632v-0.992q-0.96 1.12-1.856 1.12-0.8 0-1.056-0.672-0.128-0.416-0.128-1.344v-7.040h1.632v6.56q0 0.608 0 0.64 0.064 0.384 0.384 0.384 0.48 0 1.024-0.768v-6.816h1.632z"></path>
</symbol>
<symbol id="icon-copyright" viewBox="0 0 27 32">
<title>copyright</title>
<path d="M20.544 19.168v1.952q0 0.896-0.672 1.6t-1.664 1.088-2.112 0.576-2.080 0.192q-3.68 0-6.144-2.496t-2.432-6.176q0-3.616 2.432-6.048t6.048-2.432q0.608 0 1.344 0.096t1.664 0.32 1.632 0.608 1.248 0.992 0.512 1.44v1.952q0 0.288-0.288 0.288h-2.112q-0.288 0-0.288-0.288v-1.248q0-0.768-1.184-1.216t-2.432-0.416q-2.528 0-4.096 1.632t-1.568 4.224q0 2.72 1.632 4.48t4.16 1.76q1.216 0 2.464-0.448t1.248-1.184v-1.248q0-0.128 0.096-0.192t0.16-0.096h2.144q0.096 0 0.192 0.096t0.096 0.192zM13.728 4.576q-2.336 0-4.448 0.896t-3.648 2.432-2.432 3.648-0.928 4.448 0.928 4.448 2.432 3.616 3.648 2.464 4.448 0.896 4.416-0.896 3.648-2.464 2.432-3.616 0.928-4.448-0.928-4.448-2.432-3.648-3.648-2.432-4.416-0.896zM27.424 16q0 3.744-1.824 6.88t-4.992 4.992-6.88 1.856-6.912-1.856-4.96-4.992-1.856-6.88 1.856-6.88 4.96-4.992 6.912-1.856 6.88 1.856 4.992 4.992 1.824 6.88z"></path>
</symbol>
<symbol id="icon-creative-commons" viewBox="0 0 32 32">
<title>creative-commons</title>
<path d="M10.816 22.016q2.72 0 4.576-1.856 0.256-0.32 0.064-0.64l-0.8-1.472q-0.128-0.224-0.448-0.288-0.288-0.032-0.48 0.192l-0.064 0.032q-0.064 0.096-0.192 0.192t-0.32 0.256-0.416 0.256-0.512 0.224-0.608 0.16-0.672 0.064q-1.344 0-2.24-0.896t-0.864-2.272q0-1.344 0.864-2.24t2.176-0.864q0.672 0 1.28 0.256t0.896 0.48l0.288 0.256q0.192 0.192 0.448 0.192 0.288-0.064 0.448-0.256l0.928-1.408q0.256-0.352-0.032-0.704-0.032-0.064-0.192-0.192t-0.544-0.416-0.864-0.512-1.184-0.416-1.536-0.16q-2.656 0-4.416 1.728t-1.728 4.288q0 2.592 1.728 4.32t4.416 1.696zM22.048 22.016q2.752 0 4.608-1.856 0.224-0.32 0.064-0.64l-0.8-1.472q-0.16-0.256-0.448-0.288t-0.48 0.192l-0.064 0.032q-0.096 0.096-0.224 0.192t-0.32 0.256-0.416 0.256-0.512 0.224-0.576 0.16-0.672 0.064q-1.376 0-2.24-0.896t-0.864-2.272q0-1.344 0.832-2.24t2.176-0.864q0.672 0 1.28 0.256t0.928 0.48l0.256 0.256q0.224 0.192 0.48 0.192 0.288-0.064 0.416-0.256l0.96-1.408q0.224-0.352-0.032-0.704-0.064-0.064-0.192-0.192t-0.544-0.416-0.864-0.512-1.216-0.416-1.536-0.16q-2.624 0-4.384 1.728t-1.76 4.288q0 2.592 1.728 4.32t4.416 1.696zM16 2.848q-2.688 0-5.12 1.056t-4.16 2.784-2.816 4.192-1.056 5.12 1.056 5.12 2.816 4.16 4.16 2.816 5.12 1.056 5.12-1.056 4.192-2.816 2.784-4.16 1.056-5.12-1.056-5.12-2.784-4.192-4.192-2.784-5.12-1.056zM16 0q3.264 0 6.208 1.28t5.12 3.392 3.392 5.12 1.28 6.208-1.28 6.208-3.392 5.12-5.12 3.392-6.208 1.28-6.208-1.28-5.12-3.392-3.392-5.12-1.28-6.208 1.28-6.208 3.392-5.12 5.12-3.392 6.208-1.28z"></path>
</symbol>
<symbol id="icon-menu" viewBox="0 0 28 28">
<title>menu</title>
<path d="M4,10h24c1.104,0,2-0.896,2-2s-0.896-2-2-2H4C2.896,6,2,6.896,2,8S2.896,10,4,10z M28,14H4c-1.104,0-2,0.896-2,2  s0.896,2,2,2h24c1.104,0,2-0.896,2-2S29.104,14,28,14z M28,22H4c-1.104,0-2,0.896-2,2s0.896,2,2,2h24c1.104,0,2-0.896,2-2  S29.104,22,28,22z"/>
</symbol>
<symbol id="icon-cross" viewBox="0 0 32 32">
    <title>cross</title>
    <path d="M31.708 25.708c-0-0-0-0-0-0l-9.708-9.708 9.708-9.708c0-0 0-0 0-0 0.105-0.105 0.18-0.227 0.229-0.357 0.133-0.356 0.057-0.771-0.229-1.057l-4.586-4.586c-0.286-0.286-0.702-0.361-1.057-0.229-0.13 0.048-0.252 0.124-0.357 0.228 0 0-0 0-0 0l-9.708 9.708-9.708-9.708c-0-0-0-0-0-0-0.105-0.104-0.227-0.18-0.357-0.228-0.356-0.133-0.771-0.057-1.057 0.229l-4.586 4.586c-0.286 0.286-0.361 0.702-0.229 1.057 0.049 0.13 0.124 0.252 0.229 0.357 0 0 0 0 0 0l9.708 9.708-9.708 9.708c-0 0-0 0-0 0-0.104 0.105-0.18 0.227-0.229 0.357-0.133 0.355-0.057 0.771 0.229 1.057l4.586 4.586c0.286 0.286 0.702 0.361 1.057 0.229 0.13-0.049 0.252-0.124 0.357-0.229 0-0 0-0 0-0l9.708-9.708 9.708 9.708c0 0 0 0 0 0 0.105 0.105 0.227 0.18 0.357 0.229 0.356 0.133 0.771 0.057 1.057-0.229l4.586-4.586c0.286-0.286 0.362-0.702 0.229-1.057-0.049-0.13-0.124-0.252-0.229-0.357z"></path>
</symbol>
<symbol id="icon-whatsapp" viewBox="0 0 32 32">
    <title>whatsapp</title>
    <path d="M27.281 4.65c-2.994-3-6.975-4.65-11.219-4.65-8.738 0-15.85 7.112-15.85 15.856 0 2.794 0.731 5.525 2.119 7.925l-2.25 8.219 8.406-2.206c2.319 1.262 4.925 1.931 7.575 1.931h0.006c0 0 0 0 0 0 8.738 0 15.856-7.113 15.856-15.856 0-4.238-1.65-8.219-4.644-11.219zM16.069 29.050v0c-2.369 0-4.688-0.637-6.713-1.837l-0.481-0.288-4.987 1.306 1.331-4.863-0.313-0.5c-1.325-2.094-2.019-4.519-2.019-7.012 0-7.269 5.912-13.181 13.188-13.181 3.519 0 6.831 1.375 9.319 3.862 2.488 2.494 3.856 5.8 3.856 9.325-0.006 7.275-5.919 13.188-13.181 13.188zM23.294 19.175c-0.394-0.2-2.344-1.156-2.706-1.288s-0.625-0.2-0.894 0.2c-0.262 0.394-1.025 1.288-1.256 1.556-0.231 0.262-0.462 0.3-0.856 0.1s-1.675-0.619-3.188-1.969c-1.175-1.050-1.975-2.35-2.206-2.744s-0.025-0.613 0.175-0.806c0.181-0.175 0.394-0.463 0.594-0.694s0.262-0.394 0.394-0.662c0.131-0.262 0.069-0.494-0.031-0.694s-0.894-2.15-1.219-2.944c-0.319-0.775-0.65-0.669-0.894-0.681-0.231-0.012-0.494-0.012-0.756-0.012s-0.694 0.1-1.056 0.494c-0.363 0.394-1.387 1.356-1.387 3.306s1.419 3.831 1.619 4.1c0.2 0.262 2.794 4.269 6.769 5.981 0.944 0.406 1.681 0.65 2.256 0.837 0.95 0.3 1.813 0.256 2.494 0.156 0.762-0.113 2.344-0.956 2.675-1.881s0.331-1.719 0.231-1.881c-0.094-0.175-0.356-0.275-0.756-0.475z"></path>
</symbol>
<symbol id="icon-share" viewBox="0 0 32 32">
    <title>share</title>
    <path d="M27 22c-1.411 0-2.685 0.586-3.594 1.526l-13.469-6.734c0.041-0.258 0.063-0.522 0.063-0.791s-0.022-0.534-0.063-0.791l13.469-6.734c0.909 0.94 2.183 1.526 3.594 1.526 2.761 0 5-2.239 5-5s-2.239-5-5-5-5 2.239-5 5c0 0.269 0.022 0.534 0.063 0.791l-13.469 6.734c-0.909-0.94-2.183-1.526-3.594-1.526-2.761 0-5 2.239-5 5s2.239 5 5 5c1.411 0 2.685-0.586 3.594-1.526l13.469 6.734c-0.041 0.258-0.063 0.522-0.063 0.791 0 2.761 2.239 5 5 5s5-2.239 5-5c0-2.761-2.239-5-5-5z"></path>
</symbol>
<symbol id="icon-home" viewBox="0 0 32 32">
    <title>home</title>
    <path d="M32 18.451l-16-12.42-16 12.42v-5.064l16-12.42 16 12.42zM28 18v12h-8v-8h-8v8h-8v-12l12-9z"></path>
</symbol>
<symbol id="icon-creative-commons" viewBox="0 0 28 28">
    <title>creative-commons</title>
    <path d="M9.453 19.266c2.562 0 3.953-1.563 4.016-1.625 0.125-0.156 0.156-0.391 0.047-0.562l-0.703-1.281c-0.063-0.141-0.219-0.234-0.375-0.266-0.156-0.016-0.313 0.047-0.422 0.172-0.016 0-1 1.047-2.438 1.047-1.578 0-2.719-1.156-2.719-2.766 0-1.594 1.109-2.734 2.656-2.734 1.297 0 2.156 0.875 2.156 0.875 0.109 0.109 0.25 0.172 0.406 0.156s0.297-0.094 0.375-0.219l0.828-1.219c0.125-0.187 0.109-0.438-0.031-0.609-0.047-0.063-1.313-1.5-3.797-1.5-3.078 0-5.375 2.266-5.375 5.266 0 3.047 2.25 5.266 5.375 5.266zM19.297 19.266c2.578 0 3.953-1.563 4.016-1.625 0.125-0.156 0.156-0.391 0.063-0.562l-0.703-1.281c-0.078-0.141-0.219-0.234-0.391-0.266-0.156-0.016-0.313 0.047-0.422 0.172-0.016 0-1 1.047-2.438 1.047-1.578 0-2.719-1.156-2.719-2.766 0-1.594 1.109-2.734 2.656-2.734 1.313 0 2.156 0.875 2.156 0.875 0.109 0.109 0.25 0.172 0.406 0.156s0.297-0.094 0.375-0.219l0.828-1.219c0.125-0.187 0.109-0.438-0.031-0.609-0.047-0.063-1.313-1.5-3.797-1.5-3.063 0-5.375 2.266-5.375 5.266 0 3.047 2.25 5.266 5.375 5.266zM14 2.5c-6.344 0-11.5 5.156-11.5 11.5s5.156 11.5 11.5 11.5 11.5-5.156 11.5-11.5-5.156-11.5-11.5-11.5zM14 0c7.734 0 14 6.266 14 14s-6.266 14-14 14-14-6.266-14-14 6.266-14 14-14z"></path>
</symbol>
</defs>
</svg>
