<?xml version="1.0" encoding="utf-8"?>
<!-- Generator: Adobe Illustrator 22.1.0, SVG Export Plug-In . SVG Version: 6.00 Build 0)  -->
<svg version="1.1" id="Layer_1" xmlns="http://www.w3.org/2000/svg" xmlns:xlink="http://www.w3.org/1999/xlink" x="0px" y="0px"
	 viewBox="0 0 31 31" style="enable-background:new 0 0 31 31;" xml:space="preserve">
<style type="text/css">
	.st0{fill:#151F21;}
	.st1{fill:#00B1F0;}
</style>
<g>
	<path class="st0" d="M3.6,25.3c-1.7-2-2.8-4.2-3.3-6.7c-0.5-2.2-0.5-4.4,0.1-6.6c0.1-0.3,0.2-0.5,0.5-0.5c3.5,0,10.7,0,10.7,0
		S6.3,20.7,3.6,25.3z"/>
	<path class="st0" d="M19.3,19.3c0,0,5.3-9.1,8-13.7c0.6,0.8,1,1.4,1.4,2.1c2,3.5,2.7,7.2,1.8,11.2c-0.1,0.4-0.2,0.5-0.6,0.5
		C26.5,19.3,19.3,19.3,19.3,19.3z"/>
	<path class="st0" d="M10.6,17.4c0,0,5.2,8.8,7.9,13.3c-0.9,0.1-1.7,0.2-2.4,0.2c-4,0.1-7.5-1.2-10.5-3.7C5.2,27,5,26.8,5.2,26.4
		C6.9,23.6,10.6,17.4,10.6,17.4z"/>
	<path class="st0" d="M12.7,0.3c1.9-0.4,3.8-0.4,5.6-0.1c2.7,0.5,5.1,1.7,7.2,3.4C25.9,4,26,4.3,25.7,4.8c-1.6,2.7-5.2,8.7-5.2,8.7
		S15.3,4.7,12.7,0.3z"/>
	<path class="st0" d="M15.9,9.6c0,0-9.8,0-14.7,0c0-0.2,0.2-0.5,0.2-0.7C3.3,5.1,6.1,2.6,10,1c0.5-0.2,0.8-0.2,1.1,0.4
		C12.6,4,15.9,9.6,15.9,9.6z"/>
	<path class="st0" d="M15.2,21.3h14.5c0,0-0.2,0.5-0.3,0.8c-1.8,3.9-4.5,6.2-8.5,7.8c-0.3,0.1-0.6,0.2-0.8-0.2
		C18.5,27,15.2,21.3,15.2,21.3z"/>
</g>
<g>
	<circle class="st1" cx="15.5" cy="15.5" r="3.1"/>
</g>
</svg>
